<svg version="1.1" id="Layer_1" xmlns="http://www.w3.org/2000/svg" xmlns:xlink="http://www.w3.org/1999/xlink" x="0px" y="0px" viewBox="0 0 810.5 187" style="enable-background:new 0 0 810.5 187;" xml:space="preserve" width="190" height="46">
<path id="t-logo_000" class="t_logo001" d="M70.7,165.4c-39,0-70.7-31.7-70.7-70.7S31.6,24,70.7,24s70.7,31.7,70.7,70.7l0,0
						C141.3,133.7,109.7,165.3,70.7,165.4z M70.7,29.7c-35.9,0-65,29.1-65,65s29.1,65,65,65s65-29.1,65-65S106.6,29.7,70.7,29.7z M70.6,32.3c-34.5,0-62.4,27.9-62.4,62.4s27.9,62.4,62.4,62.4c34.5,0,62.4-27.9,62.4-62.4
					C133,60.2,105.1,32.3,70.6,32.3z M90.5,97.2l-38.6,34v-34H26V69.3h89.4v27.9H90.5z" fill="#fff"></path>
<path id="t-logo_001" class="t_logo001" d="M218.2,125.8c1.6,1.6,2.6,3.8,2.5,6.1v0.2c0,2.3-0.9,4.4-2.5,6c-1.5,1.7-3.7,2.6-6,2.6h-7.5
						c-7.1,0.1-13.9-2.7-18.9-7.8c-5.1-4.9-7.9-11.7-7.8-18.8V55.8h-9.6c-2.3,0-4.4-0.9-6-2.5c-1.6-1.6-2.6-3.7-2.5-6v-0.2
						c0-2.3,0.9-4.5,2.5-6.1c1.5-1.7,3.7-2.6,6-2.6h9.6V8.5c0-2.3,0.9-4.5,2.5-6.1c1.6-1.6,3.7-2.5,6-2.4h0.3c2.2,0,4.4,0.8,6,2.4
						c1.6,1.6,2.5,3.8,2.5,6.1V38h0.7v0.3h16.2c2.3,0,4.4,0.9,6,2.6c1.6,1.6,2.5,3.8,2.5,6.1v0.2c0,2.3-0.9,4.4-2.5,6
						c-1.6,1.6-3.7,2.6-6,2.5H196v0.4h-0.7v57.8c0,2.4,0.9,4.8,2.7,6.5c1.7,1.8,4.1,2.8,6.6,2.8h7.5
						C214.4,123.3,216.5,124.2,218.2,125.8z" fill="#fff"></path>
<path id="t-logo_002" class="t_logo001" d="M264,47.5c-25.8-0.1-46.8,20.6-46.9,46.4c0,0.2,0,0.3,0,0.5c0,26.1,20.8,45.6,46.9,45.6
						c10.6,0,19.5-2.5,27.5-9.3c0,5.3,5.2,9.3,8.9,9.3c5,0.2,9.1-3.7,9.3-8.7c0-0.2,0-0.4,0-0.6V94.3C309.6,68.3,290.1,47.5,264,47.5z
							M264,121.8c-15.6,0-28.8-11.8-28.8-27.5c0.2-15.8,13-28.6,28.8-28.8c15.6,0,27.5,13.3,27.5,28.9S279.6,121.8,264,121.8z" fill="#fff"></path>
<path id="t-logo_003" class="t_logo001" d="M367.4,47.1c-25.7,0-46.6,20.8-46.6,46.6c0,25.7,20.8,46.6,46.6,46.6c0,0,0,0,0,0
						c10.2-0.1,20.1-3.5,28.2-9.6v10.2c-0.3,15.6-13.2,28-28.9,27.7c-10.6-0.2-20.2-6.4-24.8-15.9c-2.3-4.5-7.8-6.3-12.3-4.1
						c-4.6,2.2-6.5,7.6-4.3,12.2c0,0,0,0.1,0,0.1c11.3,23.1,39.3,32.7,62.4,21.3c16-7.8,26.1-24.1,26.1-41.8V93.8
						c0.1-25.7-20.6-46.6-46.3-46.7C367.5,47.1,367.4,47.1,367.4,47.1z M367.4,121.8c-15.6,0-28.2-12.6-28.2-28.2s12.6-28.2,28.2-28.2
						c15.6,0,28.2,12.6,28.2,28.2C395.5,109.1,382.9,121.7,367.4,121.8z" fill="#fff"></path>
<path id="t-logo_004" class="t_logo001" d="M471.5,47.1c-25.7,0-46.6,20.9-46.6,46.6c0,25.7,20.9,46.6,46.6,46.6c10.2-0.1,20.1-3.5,28.2-9.6v10.2
						c-0.3,15.6-13.2,28-28.9,27.7c-10.6-0.2-20.2-6.4-24.8-15.9c-2.3-4.5-7.8-6.3-12.3-4.1c-4.6,2.1-6.5,7.5-4.4,12.1
						c0,0.1,0.1,0.1,0.1,0.2c7.8,16.1,24.1,26.2,42,26.1c25.7-0.1,46.5-20.9,46.6-46.6V93.8C517.9,68,497,47.1,471.5,47.1z
							M471.5,121.8c-15.6,0-28.2-12.6-28.2-28.2s12.6-28.2,28.2-28.2c15.6,0,28.2,12.6,28.2,28.2C499.6,109.1,487,121.7,471.5,121.8z" fill="#fff"></path>
<path id="t-logo_005" class="t_logo001" d="M575,46.8c-10.2,0-20.1,3.3-28.2,9.4V10c0-5.1-4.1-9.2-9.2-9.2s-9.2,4.1-9.2,9.2v83.3
						c0,25.4,20.9,46.6,46.5,46.6c25.7,0,46.6-20.8,46.6-46.6c0,0,0,0,0,0c0.2-25.5-20.2-46.3-45.7-46.5
						C575.5,46.8,575.3,46.8,575,46.8z M575,121.5c-15.6,0-28.2-12.6-28.2-28.2s12.6-28.2,28.2-28.2c15.6,0,28.2,12.6,28.2,28.2
						C603.2,108.9,590.6,121.5,575,121.5C575,121.5,575,121.5,575,121.5z" fill="#fff"></path>
<path id="t-logo_006" class="t_logo001" d="M679,47.1c-25.7,0-46.6,20.9-46.6,46.6s20.9,46.6,46.6,46.6c25.7,0,46.6-20.9,46.6-46.6c0,0,0,0,0,0
						C725.6,68,704.7,47.1,679,47.1z M679,121.8c-15.6,0-28.2-12.6-28.2-28.2s12.6-28.2,28.2-28.2c15.6,0,28.2,12.6,28.2,28.2
						C707.1,109.1,694.5,121.7,679,121.8z" fill="#fff"></path>
<path id="t-logo_007" class="t_logo001" d="M784.1,93.7l24.5-31.8c3.1-4.1,2.4-9.9-1.7-13c0,0,0,0,0,0c-3.8-3.1-9.4-2.5-12.4,1.3
						c-0.1,0.1-0.2,0.2-0.3,0.4l-21.7,28l-21.7-28c-3-4-8.6-4.8-12.6-1.9c-0.1,0.1-0.1,0.1-0.2,0.2c-4.1,3.1-4.8,8.9-1.7,13
						c0,0,0,0,0,0l24.5,31.8l-24.5,31.8c-3.1,3.9-2.4,9.6,1.5,12.6c0.1,0.1,0.1,0.1,0.2,0.2c3.9,3.1,9.5,2.5,12.7-1.3
						c0-0.1,0.1-0.1,0.1-0.2l21.7-28l21.7,28c1.7,2.2,4.4,3.5,7.2,3.5c2,0,4-0.7,5.5-2c4-3,4.8-8.6,1.9-12.6c-0.1-0.1-0.1-0.1-0.2-0.2
						L784.1,93.7z" fill="#fff"></path>
</svg>