<svg xmlns="http://www.w3.org/2000/svg" width="245" height="245" viewBox="0 0 245 245">
  <g id="Group_1" data-name="Group 1" transform="translate(-928 -466)">
    <rect id="Rectangle_1" data-name="Rectangle 1" width="245" height="245" transform="translate(928 466)" fill="none"/>
    <path id="Union_1" data-name="Union 1" d="M100.748,182A18.736,18.736,0,0,1,82,163.278V102.44a18.736,18.736,0,0,1,18.748-18.722H119.5A18.735,18.735,0,0,1,138.248,65h37.5A18.736,18.736,0,0,1,194.5,83.718h18.748A18.737,18.737,0,0,1,232,102.44v60.838A18.737,18.737,0,0,1,213.248,182ZM89.032,102.44v60.838a11.725,11.725,0,0,0,11.715,11.705h112.5a11.726,11.726,0,0,0,11.72-11.705V102.44a11.722,11.722,0,0,0-11.72-11.7H187.468V83.718a11.721,11.721,0,0,0-11.72-11.7h-37.5a11.721,11.721,0,0,0-11.715,11.7v7.021H100.748A11.721,11.721,0,0,0,89.032,102.44Zm35.154,28.081A32.813,32.813,0,1,1,157,163.282a32.813,32.813,0,0,1-32.814-32.761Zm7.033,0A25.781,25.781,0,1,0,157,104.782a25.781,25.781,0,0,0-25.781,25.739ZM207.8,107.212a3.946,3.946,0,1,1,1.158,2.793,3.951,3.951,0,0,1-1.158-2.793Z" transform="translate(894 465)" fill="#ccc"/>
  </g>
</svg>
