<svg xmlns="http://www.w3.org/2000/svg" xmlns:xlink="http://www.w3.org/1999/xlink" width="610.387" height="99.337" viewBox="0 0 610.387 99.337">
  <defs>
    <linearGradient id="linear-gradient" x1="0.5" y1="1" x2="0.5" gradientUnits="objectBoundingBox">
      <stop offset="0" stop-color="#eb5c99"/>
      <stop offset="0.77" stop-color="#613983"/>
      <stop offset="1" stop-color="#613983"/>
    </linearGradient>
    <linearGradient id="linear-gradient-3" x1="10.692" y1="3.954" x2="0.007" y2="3.954" gradientUnits="objectBoundingBox">
      <stop offset="0.37" stop-color="#c63d77"/>
      <stop offset="1" stop-color="#613983"/>
    </linearGradient>
    <linearGradient id="linear-gradient-4" x1="6.402" y1="5.754" x2="-0.613" y2="5.754" xlink:href="#linear-gradient-3"/>
    <linearGradient id="linear-gradient-5" x1="5.26" y1="3.974" x2="-1.726" y2="3.974" xlink:href="#linear-gradient-3"/>
    <linearGradient id="linear-gradient-6" x1="4.136" y1="3.974" x2="-2.842" y2="3.974" xlink:href="#linear-gradient-3"/>
    <linearGradient id="linear-gradient-7" x1="3.025" y1="3.994" x2="-3.954" y2="3.994" xlink:href="#linear-gradient-3"/>
    <linearGradient id="linear-gradient-8" x1="1.905" y1="5.715" x2="-5.065" y2="5.715" xlink:href="#linear-gradient-3"/>
    <linearGradient id="linear-gradient-9" x1="0.993" y1="5.705" x2="-7.537" y2="5.705" xlink:href="#linear-gradient-3"/>
  </defs>
  <g id="Taggbox-Widget" transform="translate(-1378.86 4533.914)">
    <path id="Widget" d="M11.748,0a1.839,1.839,0,0,1-1.21-.418A2.054,2.054,0,0,1,9.856-1.54L.88-31.68a2.394,2.394,0,0,1,.088-1.936,1.552,1.552,0,0,1,1.452-.748,1.939,1.939,0,0,1,1.078.33,2.051,2.051,0,0,1,.77,1.122L12.276-5.06H11.264l7.524-27.28a1.5,1.5,0,0,1,.638-.88,1.991,1.991,0,0,1,1.166-.352,2.046,2.046,0,0,1,1.1.33,1.591,1.591,0,0,1,.7.946L29.964-5.06H29l8.052-28.072A1.651,1.651,0,0,1,38.9-34.364a1.348,1.348,0,0,1,1.364.792A2.753,2.753,0,0,1,40.3-31.68l-8.932,30.1a2.678,2.678,0,0,1-.748,1.166A1.754,1.754,0,0,1,29.436,0,1.725,1.725,0,0,1,28.27-.44a2.458,2.458,0,0,1-.726-1.1L20.064-29.3H21.12L13.64-1.584A2.443,2.443,0,0,1,12.914-.44,1.725,1.725,0,0,1,11.748,0ZM47.74,0a1.89,1.89,0,0,1-1.364-.506,1.829,1.829,0,0,1-.528-1.386V-22.176a1.829,1.829,0,0,1,.528-1.386,1.89,1.89,0,0,1,1.364-.506,1.814,1.814,0,0,1,1.342.506,1.873,1.873,0,0,1,.506,1.386V-1.892a1.873,1.873,0,0,1-.506,1.386A1.814,1.814,0,0,1,47.74,0ZM47.7-28.424a2.424,2.424,0,0,1-1.8-.77,2.532,2.532,0,0,1-.748-1.826,2.335,2.335,0,0,1,.77-1.8,2.561,2.561,0,0,1,1.782-.7,2.561,2.561,0,0,1,1.782.7,2.335,2.335,0,0,1,.77,1.8,2.532,2.532,0,0,1-.748,1.826A2.424,2.424,0,0,1,47.7-28.424ZM69.08.22a12.234,12.234,0,0,1-6.248-1.606,11.83,11.83,0,0,1-4.378-4.378,12.32,12.32,0,0,1-1.606-6.292,12.645,12.645,0,0,1,1.54-6.248,11.644,11.644,0,0,1,4.18-4.378,11.284,11.284,0,0,1,5.984-1.606,10.971,10.971,0,0,1,5.17,1.21,10.79,10.79,0,0,1,3.762,3.19V-32.472a1.79,1.79,0,0,1,.55-1.386,1.91,1.91,0,0,1,1.342-.506,1.89,1.89,0,0,1,1.364.506,1.829,1.829,0,0,1,.528,1.386v20.548a12.7,12.7,0,0,1-1.694,6.182A11.983,11.983,0,0,1,75.24-1.386,11.912,11.912,0,0,1,69.08.22Zm0-3.344a8.129,8.129,0,0,0,4.378-1.188A8.686,8.686,0,0,0,76.494-7.5a9.154,9.154,0,0,0,1.122-4.554,9.188,9.188,0,0,0-1.122-4.532,8.467,8.467,0,0,0-3.036-3.19,8.246,8.246,0,0,0-4.378-1.166A8.393,8.393,0,0,0,64.7-19.778a8.524,8.524,0,0,0-3.1,3.19,9.048,9.048,0,0,0-1.144,4.532A9.014,9.014,0,0,0,61.6-7.5a8.744,8.744,0,0,0,3.1,3.19A8.274,8.274,0,0,0,69.08-3.124ZM99.616.22a11.7,11.7,0,0,1-6.072-1.562,11,11,0,0,1-4.136-4.334,13.129,13.129,0,0,1-1.5-6.336,12.631,12.631,0,0,1,1.584-6.38,11.39,11.39,0,0,1,4.334-4.334,12.559,12.559,0,0,1,6.314-1.562,12.47,12.47,0,0,1,6.27,1.562,11.234,11.234,0,0,1,4.312,4.334,13.107,13.107,0,0,1,1.606,6.38l-2.2.748a12.75,12.75,0,0,1-1.342,5.94,10.184,10.184,0,0,1-3.718,4.07A10.135,10.135,0,0,1,99.616.22Zm.528,9.416A13.722,13.722,0,0,1,94.138,8.36,12.474,12.474,0,0,1,89.672,4.8a1.566,1.566,0,0,1-.4-1.254,1.459,1.459,0,0,1,.7-1.078,1.87,1.87,0,0,1,1.408-.308,1.789,1.789,0,0,1,1.188.748,8.879,8.879,0,0,0,3.168,2.464,10.308,10.308,0,0,0,4.488.924A8.359,8.359,0,0,0,104.5,5.17a7.946,7.946,0,0,0,3.058-3.234A10.551,10.551,0,0,0,108.68-3.08V-9.592L110-12.584l2.332.572V-2.86A12.821,12.821,0,0,1,110.748,3.5a11.958,11.958,0,0,1-4.312,4.488A11.917,11.917,0,0,1,100.144,9.636Zm0-12.76a8.452,8.452,0,0,0,4.422-1.144,8.181,8.181,0,0,0,3.014-3.146,9.392,9.392,0,0,0,1.1-4.6,9.519,9.519,0,0,0-1.1-4.62,8.14,8.14,0,0,0-3.014-3.168,8.452,8.452,0,0,0-4.422-1.144A8.569,8.569,0,0,0,95.7-19.8a8.249,8.249,0,0,0-3.058,3.168,9.368,9.368,0,0,0-1.122,4.62,9.244,9.244,0,0,0,1.122,4.6A8.292,8.292,0,0,0,95.7-4.268,8.569,8.569,0,0,0,100.144-3.124ZM129.976.22a12.772,12.772,0,0,1-6.38-1.562,11.346,11.346,0,0,1-4.356-4.334,12.542,12.542,0,0,1-1.584-6.336,13.1,13.1,0,0,1,1.5-6.358,11.247,11.247,0,0,1,4.114-4.334,11.456,11.456,0,0,1,6.05-1.584,10.964,10.964,0,0,1,5.83,1.518,10.109,10.109,0,0,1,3.828,4.2,13.493,13.493,0,0,1,1.342,6.116,1.6,1.6,0,0,1-.484,1.21,1.712,1.712,0,0,1-1.232.462H120.208v-3.036H138.82l-1.892,1.32a9.574,9.574,0,0,0-.88-4.356,7.2,7.2,0,0,0-2.64-3.036,7.419,7.419,0,0,0-4.092-1.1,8.221,8.221,0,0,0-4.378,1.144,7.456,7.456,0,0,0-2.86,3.19,10.524,10.524,0,0,0-.99,4.642,9.224,9.224,0,0,0,1.144,4.62,8.264,8.264,0,0,0,3.146,3.168,9.1,9.1,0,0,0,4.6,1.144,9.516,9.516,0,0,0,3.058-.528,7.463,7.463,0,0,0,2.486-1.32,2.08,2.08,0,0,1,1.21-.418,1.535,1.535,0,0,1,1.122.374,1.715,1.715,0,0,1,.682,1.232A1.361,1.361,0,0,1,137.94-2.6a11.644,11.644,0,0,1-3.7,2.024A12.827,12.827,0,0,1,129.976.22ZM155.232,0a7.7,7.7,0,0,1-4.092-1.1A7.76,7.76,0,0,1,148.3-4.136a9.1,9.1,0,0,1-1.034-4.356V-29.876a1.832,1.832,0,0,1,.506-1.32,1.773,1.773,0,0,1,1.342-.528,1.791,1.791,0,0,1,1.32.528,1.791,1.791,0,0,1,.528,1.32V-8.492a4.981,4.981,0,0,0,1.21,3.432A3.912,3.912,0,0,0,155.232-3.7h1.32a1.549,1.549,0,0,1,1.188.528,1.879,1.879,0,0,1,.484,1.32,1.675,1.675,0,0,1-.594,1.342A2.259,2.259,0,0,1,156.112,0Zm-10.56-19.976a1.712,1.712,0,0,1-1.232-.462,1.493,1.493,0,0,1-.484-1.122,1.543,1.543,0,0,1,.484-1.166,1.712,1.712,0,0,1,1.232-.462H155.54a1.712,1.712,0,0,1,1.232.462,1.543,1.543,0,0,1,.484,1.166,1.493,1.493,0,0,1-.484,1.122,1.712,1.712,0,0,1-1.232.462Z" transform="translate(1831.023 -4469.851)" fill="#2b2b2b"/>
    <g id="Taggbox" transform="translate(1378.859 -4533.917)">
      <g id="Layer_2" data-name="Layer 2" transform="translate(0 12.752)">
        <path id="Path_6624" data-name="Path 6624" d="M37.554,24A37.554,37.554,0,1,0,75.109,61.554,37.554,37.554,0,0,0,37.554,24Zm0,72.081A34.527,34.527,0,1,1,72.081,61.554,34.527,34.527,0,0,1,37.554,96.081Z" transform="translate(0 -24)" fill="url(#linear-gradient)"/>
      </g>
      <g id="Layer_3" data-name="Layer 3" transform="translate(4.356 17.161)">
        <path id="Path_6625" data-name="Path 6625" d="M8.2,65.446A33.146,33.146,0,1,1,41.346,98.591,33.146,33.146,0,0,1,8.2,65.446Z" transform="translate(-8.2 -32.3)" fill="url(#linear-gradient)"/>
      </g>
      <g id="Layer_4" data-name="Layer 4" transform="translate(13.811 36.814)">
        <path id="Path_6626" data-name="Path 6626" d="M73.488,69.3H26V84.12H39.758v18.06l20.5-18.06h13.23Z" transform="translate(-26 -69.3)" fill="#fff"/>
      </g>
      <g id="Layer_5" data-name="Layer 5" transform="translate(84.935)">
        <path id="Path_6627" data-name="Path 6627" d="M190.867,66.82a4.366,4.366,0,0,1,1.328,3.24v.106a4.552,4.552,0,0,1-1.328,3.187,4.3,4.3,0,0,1-3.187,1.381H183.7a13.842,13.842,0,0,1-10.039-4.143,13.641,13.641,0,0,1-4.143-9.986V29.637h-5.1a4.552,4.552,0,0,1-3.187-1.328,4.25,4.25,0,0,1-1.328-3.187v-.106a4.675,4.675,0,0,1,1.328-3.24,4.3,4.3,0,0,1,3.187-1.381h5.1V4.512a4.674,4.674,0,0,1,1.328-3.24A4.207,4.207,0,0,1,174.028,0h.159a4.5,4.5,0,0,1,3.187,1.275,4.451,4.451,0,0,1,1.328,3.24v15.67h.372v.159h8.6a4.388,4.388,0,0,1,3.187,1.381,4.451,4.451,0,0,1,1.328,3.24v.106a4.552,4.552,0,0,1-1.328,3.187,4.249,4.249,0,0,1-3.187,1.328h-8.605V29.8H178.7V60.5a4.648,4.648,0,0,0,1.434,3.453,4.818,4.818,0,0,0,3.506,1.487h3.984a5.094,5.094,0,0,1,3.243,1.38Z" transform="translate(-159.898 0.006)" fill="url(#linear-gradient-3)"/>
      </g>
      <g id="Layer_6" data-name="Layer 6" transform="translate(115.319 25.234)">
        <path id="Path_6628" data-name="Path 6628" d="M242.012,47.5A24.78,24.78,0,0,0,217.1,72.412c0,13.864,11.049,24.222,24.912,24.222,5.63,0,10.358-1.328,14.607-4.94a5.241,5.241,0,0,0,4.727,4.94,4.781,4.781,0,0,0,4.94-4.94V72.359C266.234,58.548,255.876,47.5,242.012,47.5Zm0,39.467c-8.286,0-15.3-6.268-15.3-14.607a15.511,15.511,0,0,1,15.3-15.3c8.286,0,14.607,7.065,14.607,15.351a14.292,14.292,0,0,1-14.607,14.555Z" transform="translate(-217.099 -47.499)" fill="url(#linear-gradient-4)"/>
      </g>
      <g id="Layer_7" data-name="Layer 7" transform="translate(170.403 25.022)">
        <path id="Path_6629" data-name="Path 6629" d="M345.553,47.1a24.753,24.753,0,0,0,0,49.506,25.454,25.454,0,0,0,14.979-5.1v5.418a15.022,15.022,0,0,1-28.524,6.268,4.956,4.956,0,0,0-6.534-2.178,4.871,4.871,0,0,0-2.284,6.534A24.769,24.769,0,0,0,370.2,96.659V71.906A24.7,24.7,0,0,0,345.553,47.1Zm0,39.679A14.979,14.979,0,1,1,360.532,71.8a14.979,14.979,0,0,1-14.979,14.979Z" transform="translate(-320.8 -47.1)" fill="url(#linear-gradient-5)"/>
      </g>
      <g id="Layer_8" data-name="Layer 8" transform="translate(225.699 25.022)">
        <path id="Path_6630" data-name="Path 6630" d="M449.653,47.1a24.753,24.753,0,0,0,0,49.506,25.576,25.576,0,0,0,14.979-5.1v5.418a15.022,15.022,0,0,1-28.524,6.268,4.956,4.956,0,0,0-6.533-2.178,4.828,4.828,0,0,0-2.284,6.534,24.578,24.578,0,0,0,22.31,13.864,24.849,24.849,0,0,0,24.753-24.753V71.906a24.847,24.847,0,0,0-24.7-24.806Zm0,39.679A14.979,14.979,0,1,1,464.632,71.8a14.979,14.979,0,0,1-14.979,14.979Z" transform="translate(-424.9 -47.1)" fill="url(#linear-gradient-6)"/>
      </g>
      <g id="Layer_9" data-name="Layer 9" transform="translate(280.676 0.428)">
        <path id="Path_6631" data-name="Path 6631" d="M553.153,25.234a24.886,24.886,0,0,0-14.979,4.993V5.687a4.887,4.887,0,1,0-9.774,0V49.934a24.827,24.827,0,1,0,24.753-24.7Zm0,39.679a14.963,14.963,0,1,1,10.6-4.383A14.963,14.963,0,0,1,553.153,64.913Z" transform="translate(-528.4 -0.8)" fill="url(#linear-gradient-7)"/>
      </g>
      <g id="Layer_10" data-name="Layer 10" transform="translate(335.919 25.022)">
        <path id="Path_6632" data-name="Path 6632" d="M657.153,47.1a24.753,24.753,0,1,0,24.753,24.753A24.753,24.753,0,0,0,657.153,47.1Zm0,39.679A14.979,14.979,0,1,1,672.132,71.8a14.979,14.979,0,0,1-14.979,14.979Z" transform="translate(-632.4 -47.1)" fill="url(#linear-gradient-8)"/>
      </g>
      <g id="Layer_11" data-name="Layer 11" transform="translate(390.081 24.938)">
        <path id="Path_6633" data-name="Path 6633" d="M760.784,71.779,773.8,54.888a4.919,4.919,0,0,0-.9-6.905,4.69,4.69,0,0,0-6.746.9L754.622,63.758,743.1,48.885a4.781,4.781,0,0,0-6.8-.9,4.914,4.914,0,0,0-.9,6.9l13.014,16.892L735.393,88.671a4.881,4.881,0,1,0,7.7,6L754.622,79.8l11.527,14.873a4.94,4.94,0,0,0,3.825,1.859A4.6,4.6,0,0,0,772.9,95.47a4.781,4.781,0,0,0,.9-6.8Z" transform="translate(-734.366 -46.943)" fill="url(#linear-gradient-9)"/>
      </g>
    </g>
  </g>
</svg>
