<svg id="youtube" xmlns="http://www.w3.org/2000/svg" width="234.666" height="165.334" viewBox="0 0 234.666 165.334">
  <path id="Path_10" data-name="Path 10" d="M229.763,25.817A29.484,29.484,0,0,0,209.015,4.936C190.716,0,117.333,0,117.333,0S43.951,0,25.651,4.936A29.481,29.481,0,0,0,4.9,25.817C0,44.236,0,82.667,0,82.667s0,38.429,4.9,56.85A29.487,29.487,0,0,0,25.65,160.4c18.3,4.934,91.682,4.934,91.682,4.934s73.383,0,91.682-4.934a29.489,29.489,0,0,0,20.748-20.882c4.9-18.421,4.9-56.85,4.9-56.85s0-38.431-4.9-56.85" fill="red"/>
  <path id="Path_11" data-name="Path 11" d="M93.333,117.559l61.333-34.89L93.333,47.775Z" fill="#fff"/>
</svg>
