<?xml version="1.0" standalone="no"?>
<!DOCTYPE svg PUBLIC "-//W3C//DTD SVG 1.1//EN" "http://www.w3.org/Graphics/SVG/1.1/DTD/svg11.dtd" >
<svg xmlns="http://www.w3.org/2000/svg">
<metadata>Generated by IcoMoon</metadata>
<defs>
<font id="icomoon" horiz-adv-x="1024">
<font-face units-per-em="1024" ascent="960" descent="-64" />
<missing-glyph horiz-adv-x="1024" />
<glyph unicode="&#x20;" horiz-adv-x="512" d="" />
<glyph unicode="&#xe900;" glyph-name="video" horiz-adv-x="1873" d="M1176.265-63.952h-1028.926c-81.325 0.134-147.213 66.025-147.349 147.334v729.221c0.134 81.325 66.025 147.213 147.334 147.349h1026.428c81.325-0.134 147.213-66.025 147.349-147.334v-726.71c0.030-1.124 0.050-2.444 0.050-3.771 0-80.26-64.721-145.404-144.821-146.088h-0.065zM1423.493 670.276v-444.555l412.071-232.242c3.599-2.145 7.938-3.411 12.572-3.411 13.738 0 24.873 11.136 24.873 24.873 0 0.344-0.007 0.688-0.020 1.029l0.002-0.050v864.083c-0.201 14.016-11.609 25.299-25.654 25.299-4.299 0-8.353-1.059-11.912-2.928l0.14 0.067z" />
<glyph unicode="&#xe901;" glyph-name="multiple" horiz-adv-x="1065" d="M120.471 960h619.219c66.534 0 120.471-53.937 120.471-120.471v-598.739c0-66.534-53.937-120.471-120.471-120.471h-619.219c-66.534 0-120.471 53.937-120.471 120.471v598.739c0 66.534 53.937 120.471 120.471 120.471zM942.080 753.975c22.061-0.252 42.763-5.832 60.955-15.508l-0.719 0.349c19.702-10.79 35.491-26.578 45.982-45.687l0.299-0.594c10.652-20.48 16.384-40.157 16.384-95.031v-503.808c0-54.884-5.732-74.953-16.384-95.031-10.801-19.694-26.587-35.479-45.687-45.981l-0.594-0.299c-20.48-10.652-40.157-16.384-95.031-16.384h-544.788c-54.884 0-74.953 5.732-95.031 16.384-19.795 10.663-35.618 26.486-45.988 45.688l-0.293 0.593c-9.328 17.472-14.907 38.174-15.159 60.157l-0.001 0.079h525.924c73.286 0 99.529 7.78 126.153 21.705 26.684 14.254 47.989 35.559 61.854 61.447l0.39 0.796c13.924 26.624 21.705 53.208 21.705 126.153v484.974z" />
<glyph unicode="&#xe902;" glyph-name="upload" horiz-adv-x="1235" d="M576.324 430.925l-94.406-94.406c-7.449-7.449-17.742-12.057-29.11-12.057-22.736 0-41.167 18.431-41.167 41.167 0 11.368 4.608 21.66 12.057 29.11v0l164.659 164.659c7.445 7.46 17.738 12.075 29.11 12.075s21.665-4.615 29.109-12.075v0l164.659-164.659c7.449-7.449 12.057-17.742 12.057-29.11 0-22.736-18.431-41.167-41.167-41.167-11.368 0-21.66 4.608-29.11 12.057v0l-94.406 94.406v-394.636c0-22.735-18.43-41.164-41.164-41.164s-41.164 18.43-41.164 41.164v0zM247.006 159.804h205.824c22.735 0 41.164 18.43 41.164 41.164s-18.43 41.164-41.164 41.164v0h-205.824c-45.478 0.004-86.644 18.466-116.414 48.303l-0.003 0.003-0.735 0.693c-29.365 29.731-47.505 70.609-47.508 115.724v0c0.004 45.478 18.466 86.644 48.303 116.414l0.527 0.527c22.068 21.9 50.333 37.584 81.934 44.191l1.068 0.187c18.932 3.987 32.937 20.551 32.937 40.386 0 0.244-0.003 0.488-0.007 0.732v-0.036c0 1.113 0 2.268 0 3.424 0 0.079 0 0.173 0 0.266 0 113.673 92.15 205.824 205.824 205.824 94.499 0 174.124-63.685 198.298-150.478l0.344-1.448c4.936-17.614 20.847-30.314 39.725-30.314 5.473 0 10.696 1.067 15.473 3.006l-0.276-0.099c22.42 9.116 48.428 14.406 75.672 14.406 113.698 0 205.878-92.134 205.951-205.815v-0.007c0.013-22.729 18.435-41.153 41.163-41.164h41.166c0.006 0 0.014 0 0.021 0 45.457 0 82.309-36.851 82.309-82.309 0-0.007 0-0.015 0-0.022v0.001-0.503c-0.167-45.273-36.906-81.909-82.203-81.909-0.045 0-0.089 0-0.134 0h-288.273c-22.735 0-41.164-18.43-41.164-41.164s18.43-41.164 41.164-41.164v0h288.175c90.934 0.013 164.648 73.725 164.659 164.658v0.001c-0.013 90.934-73.725 164.648-164.658 164.659h-2.92c-20.996 140.439-140.775 246.921-285.425 246.921-23.166 0-45.694-2.731-67.28-7.888l1.964 0.396c-45.742 102.329-146.637 172.345-263.885 172.345-149.492 0-272.4-113.821-286.789-259.531l-0.095-1.192c-36.376-12.835-67.461-32.668-93.011-58.063l0.013 0.013-0.651-0.609c-44.654-44.711-72.269-106.449-72.269-174.637 0-0.014 0-0.029 0-0.043v0.003c0-0.013 0-0.026 0-0.042 0-67.915 27.423-129.424 71.799-174.059l-0.011 0.011 0.524-0.568c44.715-44.7 106.478-72.347 174.697-72.354h0.001z" />
<glyph unicode="&#xe903;" glyph-name="play-outline" d="M512 960c-282.77 0-512-229.23-512-512s229.23-512 512-512c282.77 0 512 229.23 512 512v0c-0.298 282.65-229.35 511.702-511.971 512h-0.029zM512 891.733c245.067 0 443.733-198.666 443.733-443.733s-198.666-443.733-443.733-443.733c-245.067 0-443.733 198.666-443.733 443.733v0c0 0.152 0 0.332 0 0.512 0 244.784 198.437 443.221 443.221 443.221 0.18 0 0.361 0 0.541 0h-0.029zM384.353 687.639c-17.438-1.768-30.932-16.372-30.932-34.128 0-0.25 0.003-0.499 0.008-0.748l-0.001 0.037v-409.6q-0.091-1.775 0-3.561c1.083-11.92 8.025-22.009 17.888-27.455l0.179-0.091c4.417-2.407 9.675-3.823 15.263-3.823 6.21 0 12.012 1.748 16.94 4.779l-0.14-0.080 341.333 204.8c10.202 6.353 16.892 17.508 16.892 30.225s-6.69 23.872-16.742 30.138l-0.15 0.087-341.333 204.8c-4.799 2.955-10.613 4.705-16.836 4.705-0.83 0-1.653-0.031-2.467-0.092l0.109 0.007zM420.261 592.703l120.536-72.181 120.183-72.522-120.183-72.533-120.525-72.181v289.428z" />
<glyph unicode="&#xe904;" glyph-name="eye-alt" horiz-adv-x="1244" d="M259.157 151.552c-109.178 67.57-196.314 161.272-254.177 272.624l-1.823 3.856c-1.937 3.674-3.075 8.030-3.075 12.651s1.137 8.977 3.147 12.802l-0.072-0.151c59.684 115.222 146.82 208.938 253.034 274.81l2.966 1.713c103.235 64.156 228.51 102.187 362.667 102.187v0c134.156-0.012 259.428-38.040 365.632-103.899l-2.966 1.713c109.161-67.606 196.292-161.316 254.175-272.665l1.825-3.858c1.931-3.676 3.064-8.031 3.064-12.651s-1.133-8.975-3.137-12.803l0.073 0.152c-59.69-115.205-146.825-208.907-253.034-274.767l-2.966-1.713c-103.215-64.236-228.485-102.34-362.65-102.4h-0.017c-134.182 0.050-259.454 38.156-365.621 104.11l2.954-1.71zM621.824 776.491c-0.266 0-0.581 0.001-0.896 0.001-241.715 0-452.031-134.439-560.252-332.623l-1.667-3.335c109.969-201.55 320.357-336 562.147-336 0.266 0 0.531 0 0.797 0h-0.042c0.224 0 0.489 0 0.755 0 241.79 0 452.177 134.45 560.478 332.666l1.668 3.334c-109.908 201.447-320.186 335.83-561.851 335.83-0.309 0-0.618 0-0.928-0.001h0.048v7.68zM621.824 213.035c-125.653 0.387-227.41 102.144-227.797 227.76v0.037c0 0.113 0 0.247 0 0.381 0 37.213 8.989 72.327 24.914 103.288l-0.593-1.27c38.004 74.985 114.513 125.484 202.816 125.484 0.247 0 0.495 0 0.742-0.001h-0.038c24.871-0.018 48.802-4.013 71.202-11.382l-1.613 0.459c52.657-17.271 95.739-51.615 123.73-96.365l0.558-0.958c21.267-34.015 33.879-75.336 33.879-119.601 0-12.423-0.993-24.615-2.905-36.499l0.173 1.306c-8.881-55.492-36.703-103.29-76.503-137.563l-0.297-0.25c-39.563-34.007-91.409-54.72-148.091-54.741h-0.005zM467.883 518.272c-11.619-22.402-18.432-48.908-18.432-77.005 0-0.138 0-0.276 0-0.413v0.022c0.242-95.125 77.291-172.174 172.393-172.416h0.535c28.019 0.017 54.45 6.796 77.755 18.794l-0.955-0.447c56.893 28.807 95.212 86.84 95.212 153.822 0 9.487-0.769 18.794-2.247 27.863l0.133-0.991c-11.704 74.162-69.502 131.975-142.683 143.574l-0.976 0.127c-8.023 1.323-17.274 2.083-26.702 2.091h-0.008c-0.141 0-0.308 0.001-0.475 0.001-66.891 0-124.836-38.3-153.102-94.167l-0.45-0.98z" />
<glyph unicode="&#xe905;" glyph-name="reply-alt" d="M257.611-22.653c-38.49 0.024-69.683 31.232-69.683 69.727v0 209.093h69.683v-209.093h696.748v696.834h-209.136v69.769h209.093c38.475-0.024 69.659-31.208 69.683-69.681v-696.921c-0.024-38.475-31.208-69.659-69.681-69.683h-0.002zM659.696 374.066c-65.224 65.562-155.51 106.136-255.273 106.136-0.293 0-0.587 0-0.879-0.001h-37.179v-147.696l-366.364 293.031 366.364 293.116v-148.984c193.934-16.171 345.222-177.512 345.326-374.21v-73zM96.948 625.536l208.836-167.446v82.736h97.806c0.34 0.001 0.742 0.002 1.144 0.002 88.999 0 171.535-27.674 239.47-74.887l-1.381 0.909c-33.74 140.44-158.156 243.227-306.617 243.441h-30.422v82.306z" />
<glyph unicode="&#xe906;" glyph-name="share-outline" horiz-adv-x="1017" d="M838.992-59.239c-98.245 0.142-177.859 79.712-178.073 177.927v0.020c0.989 18.302 3.569 35.458 7.621 52.035l-0.397-1.921 0.918 4.176-348.085 172.142-2.589-3.090c-9.955-11.738-20.502-22.285-31.849-31.916l-0.391-0.324c-29.685-23.069-67.483-36.984-108.532-36.984-57.085 0-107.884 26.911-140.403 68.74l-0.3 0.401c-23.027 29.698-36.915 67.491-36.915 108.527 0 57.054 26.844 107.838 68.592 140.411l0.395 0.297c29.709 23.128 67.554 37.082 108.659 37.082 57.036 0 107.796-26.865 140.319-68.632l0.298-0.398 2.547-3.34 348.419 172.351-1.128 4.176c-3.887 13.683-6.45 29.526-7.127 45.857l-0.014 0.416c0.26 97.55 79.4 176.528 176.986 176.528 0.235 0 0.47 0 0.705-0.001h-0.036c0.111 0 0.242 0 0.373 0 55.984 0 105.97-25.685 138.814-65.913l0.255-0.322c24.26-29.975 38.945-68.568 38.945-110.589 0-97.471-79.015-176.485-176.485-176.485-0.405 0-0.809 0.001-1.214 0.004h0.062c-0.122 0-0.267 0-0.412 0-55.972 0-105.944 25.686-138.774 65.912l-0.255 0.323-2.547 3.090-348.586-172.476 1.587-4.176c5.032-13.675 7.943-29.466 7.943-45.938s-2.911-32.263-8.247-46.889l0.303 0.95-1.587-4.176 348.711-172.518 2.589 3.34c32.197 41.327 81.972 67.655 137.895 67.655 0.192 0 0.384 0 0.576-0.001h0.346c98.358 0 178.093-79.735 178.093-178.093s-79.735-178.093-178.093-178.093v0zM838.992 234.179c-0.248 0.002-0.54 0.003-0.833 0.003-63.542 0-115.054-51.511-115.054-115.054 0-62.029 49.087-112.593 110.535-114.967l0.216-0.007v-0.292h7.266c0.009 0 0.019 0 0.030 0 62.274 0 112.757 50.483 112.757 112.757 0 0.91-0.011 1.819-0.032 2.723l0.003-0.134c-0.142 63.357-51.417 114.691-114.738 114.929h-0.023zM179.532 563.972c-63.542 0-115.054-51.511-115.054-115.054s51.511-115.054 115.054-115.054v0h2.088c0.064 0 0.14 0 0.216 0 31.102 0 59.251 12.644 79.587 33.072l0.004 0.004c20.448 20.513 33.092 48.817 33.092 80.074 0 0.684-0.006 1.368-0.018 2.049l0.001-0.102c-0.118 63.457-51.517 114.869-114.957 115.012h-0.014zM836.946 893.598c-0.099 0-0.217 0-0.334 0-31.091 0-59.229-12.645-79.552-33.071l-0.005-0.005c-20.448-20.506-33.092-48.805-33.092-80.057 0-0.676 0.006-1.351 0.018-2.023l-0.001 0.101c0-0.012 0-0.027 0-0.041 0-63.565 51.53-115.096 115.096-115.096s115.096 51.53 115.096 115.096c0 63.462-51.364 114.929-114.787 115.096h-0.016z" />
<glyph unicode="&#xe907;" glyph-name="retweet" d="M833.615 121.695c-11.674 0.143-22.365 4.237-30.825 11.002l0.1-0.078-155.846 214.864c-0.91 2.745-1.435 5.905-1.435 9.189 0 9.921 4.795 18.721 12.193 24.211l0.081 0.057c4.864 3.627 10.986 5.817 17.617 5.846h0.007c0.039 0 0.084 0 0.13 0 10.018 0 18.884-4.932 24.303-12.499l0.061-0.090 101.394-138.733v419.956c0 0.059 0 0.129 0 0.2 0 17.627-7.124 33.589-18.651 45.165l0.002-0.002c-11.582 11.575-27.579 18.734-45.248 18.734-0.025 0-0.050 0-0.076 0h-300.379l-43.571 59.743h343.91c68.355-0.17 123.706-55.597 123.754-123.963v-431.012l108.52 149.829c5.583 7.531 14.426 12.372 24.402 12.418h0.007c0.064 0 0.139 0.001 0.214 0.001 6.417 0 12.356-2.047 17.2-5.523l-0.088 0.060v-0.384c6.466-4.482 10.979-11.391 12.226-19.381l0.021-0.163c0.23-1.391 0.361-2.996 0.361-4.63 0-6.619-2.152-12.735-5.796-17.686l0.058 0.083-144.665-197.666c-4.475-6.217-10.296-11.191-17.057-14.559l-0.269-0.121c-6.455-3.154-14.044-4.998-22.066-4.998-0.254 0-0.507 0.002-0.76 0.006h0.038zM625.921 116.745h-340.112c-68.372 0.048-123.798 55.401-123.968 123.738v420.142l-107.326-146.884c-5.481-7.657-14.346-12.589-24.364-12.589-0.046 0-0.092 0-0.137 0h0.007c-0.038 0-0.083 0-0.128 0-6.614 0-12.715 2.196-17.613 5.9l0.074-0.053c-6.362 4.563-10.78 11.489-11.972 19.469l-0.020 0.16c-0.23 1.401-0.362 3.017-0.362 4.662 0 6.63 2.135 12.761 5.756 17.743l-0.060-0.087 141.977 196.087c9.086 12.626 23.633 20.829 40.11 21.123l0.046 0.001c0.111 0.001 0.243 0.001 0.375 0.001 11.695 0 22.427-4.123 30.821-10.995l-0.086 0.069 157.894-214.992c0.715-2.515 1.127-5.405 1.127-8.39 0-10.032-4.646-18.978-11.904-24.805l-0.062-0.048c-5.031-3.832-11.395-6.151-18.299-6.188h-0.008c-9.839 0.157-18.478 5.152-23.662 12.703l-0.064 0.099-102.759 141.379v-415.56c0-0.089-0.001-0.194-0.001-0.299 0-35.352 28.659-64.011 64.011-64.011 0 0 0 0 0.001 0h296.926l43.143-58.378z" />
<glyph unicode="&#xe908;" glyph-name="heart-alt" d="M84.848 414.644c-52.407 52.037-84.847 124.125-84.847 203.788 0 0.225 0 0.45 0.001 0.675v-0.035c0 0.199-0.001 0.435-0.001 0.671 0 79.671 32.44 151.765 84.831 203.795l0.016 0.016c52.017 52.187 123.97 84.477 203.464 84.477 0.339 0 0.677 0 1.017-0.001h-0.052c0.259 0.001 0.566 0.001 0.871 0.001 79.473 0 151.405-32.291 203.389-84.468l0.009-0.009 18.667-18.454 18.667 18.454c51.915 52.403 123.897 84.849 203.458 84.849 0.305 0 0.608 0 0.912-0.001h-0.047c0.2 0 0.436 0.001 0.672 0.001 76.934 0 146.82-30.177 198.465-79.339l-0.119 0.113 5.303-5.303c52.188-52.042 84.477-124.016 84.477-203.53 0-0.334 0-0.669-0.001-1.003v0.051c0.001-0.227 0.001-0.497 0.001-0.767 0-79.557-32.287-151.571-84.472-203.657l-427.422-427.369zM132.575 775.615c-39.983-40.059-64.709-95.361-64.709-156.437s24.726-116.377 64.713-156.44l379.368-379.422 379.425 379.425c39.709 39.614 64.277 94.39 64.277 154.906 0 0.501-0.001 1.002-0.005 1.501v-0.077c0.001 0.297 0.002 0.649 0.002 1.001 0 60.737-24.646 115.718-64.483 155.486l-0.002 0.002c-39.796 39.935-94.846 64.643-155.668 64.643-0.214 0-0.429 0-0.643-0.001h0.034c-0.19 0-0.415 0.001-0.64 0.001-60.829 0-115.887-24.71-155.684-64.638l-66.611-66.611-66.605 66.605c-39.747 39.839-94.707 64.487-155.423 64.487-0.375 0-0.749-0.001-1.124-0.002h0.057c-0.198 0.001-0.431 0.001-0.666 0.001-60.708 0-115.661-24.647-155.396-64.48l-0.004-0.004z" />
<glyph unicode="&#xe909;" glyph-name="quote-left-alt" horiz-adv-x="1345" d="M855.436-64h385.289c0.063 0 0.138 0 0.213 0 57.764 0 104.591 46.827 104.591 104.591 0 0.075 0 0.15 0 0.225v-0.012 388.273c0 0.063 0 0.138 0 0.213 0 57.764-46.827 104.591-104.591 104.591-0.075 0-0.15 0-0.225 0h-312.993v46.883c0.024 112.623 91.317 203.915 203.937 203.939h92.062c0.153-0.003 0.334-0.004 0.516-0.004 17.701 0 32.051 14.35 32.051 32.051 0 0.181-0.002 0.362-0.005 0.543v-0.027 110.174c0.003 0.153 0.004 0.334 0.004 0.516 0 17.701-14.35 32.051-32.051 32.051-0.181 0-0.362-0.002-0.543-0.005h-92.033c-0.228 0-0.498 0.001-0.768 0.001-209.988 0-380.217-170.229-380.217-380.217 0-0.27 0-0.54 0.001-0.81v0.042-539.618c0.506-57.213 47.004-103.399 104.289-103.399 0.181 0 0.362 0 0.543 0.001h-0.028zM104.804-64h385.247c0.063 0 0.138 0 0.213 0 57.764 0 104.591 46.827 104.591 104.591 0 0.075 0 0.15 0 0.225v-0.012 388.102c0 0.063 0 0.138 0 0.213 0 57.764-46.827 104.591-104.591 104.591-0.075 0-0.15 0-0.225 0h-312.993v79.274c0 0.089 0 0.194 0 0.299 0 94.484 76.595 171.079 171.079 171.079 0.105 0 0.21 0 0.315 0h126.055c0.165-0.003 0.36-0.005 0.556-0.005 17.701 0 32.051 14.35 32.051 32.051 0 0.122-0.001 0.243-0.002 0.364v-0.018 110.813c0.003 0.153 0.004 0.334 0.004 0.516 0 17.701-14.35 32.051-32.051 32.051-0.181 0-0.362-0.002-0.543-0.005h-126.087c-0.101 0-0.221 0-0.341 0-192.287 0-348.167-155.88-348.167-348.167 0-0.135 0-0.27 0-0.405v0.021-572.18c0.506-57.213 47.004-103.399 104.289-103.399 0.181 0 0.362 0 0.543 0.001h-0.028z" />
<glyph unicode="&#xe90a;" glyph-name="quote-right-alt" horiz-adv-x="1345" d="M490.093 960h-385.289c-0.076 0-0.166 0-0.256 0-57.764 0-104.591-46.827-104.591-104.591 0-0.045 0-0.090 0-0.135v0.007-388.060c0-0.063 0-0.138 0-0.213 0-57.764 46.827-104.591 104.591-104.591 0.075 0 0.15 0 0.225 0h312.865v-46.883c-0.024-112.623-91.317-203.915-203.937-203.939h-92.062c-0.153 0.003-0.334 0.004-0.516 0.004-17.701 0-32.051-14.35-32.051-32.051 0-0.181 0.002-0.362 0.005-0.543v0.027-110.259c-0.003-0.153-0.004-0.334-0.004-0.516 0-17.701 14.35-32.051 32.051-32.051 0.181 0 0.362 0.002 0.543 0.005h92.033c0.241-0.001 0.526-0.001 0.811-0.001 209.965 0 380.175 170.21 380.175 380.175 0 0.285 0 0.57-0.001 0.854v-0.044 539.405c-0.506 57.213-47.004 103.399-104.289 103.399-0.181 0-0.362 0-0.543-0.001h0.028zM1240.683 960h-385.247c-0.089 0-0.194 0-0.299 0-57.764 0-104.591-46.827-104.591-104.591 0-0.105 0-0.21 0-0.315v0.016-387.847c0-0.063 0-0.138 0-0.213 0-57.764 46.827-104.591 104.591-104.591 0.075 0 0.15 0 0.225 0h312.865v-79.317c0-0.089 0-0.194 0-0.299 0-94.484-76.595-171.079-171.079-171.079-0.105 0-0.21 0-0.315 0h-125.842c-0.153 0.003-0.334 0.004-0.516 0.004-17.701 0-32.051-14.35-32.051-32.051 0-0.181 0.002-0.362 0.005-0.543v0.027-110.6c-0.003-0.153-0.004-0.334-0.004-0.516 0-17.701 14.35-32.051 32.051-32.051 0.181 0 0.362 0.002 0.543 0.005h126.002c0.076 0 0.166 0 0.256 0 192.287 0 348.167 155.88 348.167 348.167 0 0.090 0 0.18 0 0.27v-0.014 572.138c-0.506 57.213-47.004 103.398-104.289 103.398-0.166 0-0.332 0-0.498-0.001h0.025z" />
<glyph unicode="&#xe90b;" glyph-name="google-rating" horiz-adv-x="1077" d="M538.539 960c-40.917-125.735-83.904-258.062-127.031-390.824-135.635 0.258-282.517-0.287-411.508-0.317 111.408-80.965 225.866-164.258 332.472-241.747-41.75-128.902-87.241-268.655-127.031-391.126 106.672 77.813 219.966 159.471 332.87 241.541 119.378-86.637 223.679-162.395 332.472-241.519-41.249 126.545-83.904 258.004-127.031 391.126 109.795 79.551 228.599 165.82 332.87 241.747-137.653 0-286.148 0-411.22 0z" />
<glyph unicode="&#xe90c;" glyph-name="multi-image" horiz-adv-x="1242" d="M675.551 714.409c-50.974 0-92.297-41.323-92.297-92.297s41.323-92.297 92.297-92.297c50.974 0 92.297 41.323 92.297 92.297v0c0 50.974-41.323 92.297-92.297 92.297v0zM675.551 591.319c-16.984 0-30.752 13.768-30.752 30.752s13.768 30.752 30.752 30.752c16.984 0 30.752-13.768 30.752-30.752v0c0-16.984-13.768-30.752-30.752-30.752v0zM931.417 806.706h-770.701c-0.745 0.013-1.624 0.020-2.504 0.020-86.401 0-156.611-69.323-158.042-155.383l-0.002-0.134v-559.701c1.433-86.194 71.642-155.518 158.043-155.518 0.88 0 1.759 0.007 2.636 0.022l-0.132-0.002h770.701c7.712 0.281 15.010 1.067 22.142 2.334l-0.951-0.14c3.23-1.281 6.969-2.075 10.877-2.192l0.049-0.001c0.080-0.001 0.174-0.001 0.268-0.001 8.745 0 16.688 3.438 22.55 9.036l-0.013-0.012c61.634 21.414 105.169 78.802 105.624 146.42v559.756c-1.433 86.194-71.642 155.518-158.043 155.518-0.88 0-1.759-0.007-2.636-0.022l0.132 0.002zM160.716-1.783c-0.628-0.015-1.369-0.023-2.111-0.023-47.734 0-87.263 35.134-94.136 80.953l-0.065 0.524 301.145 291.667c17.848 16.446 41.778 26.53 68.064 26.53s50.216-10.084 68.134-26.594l-0.070 0.064 385.288-373.161zM1027.604 91.508c-0.356-38.761-24.296-71.842-58.148-85.616l-0.624-0.225-249.161 241.297 79.301 76.528c17.848 16.446 41.778 26.53 68.064 26.53s50.216-10.084 68.134-26.594l-0.070 0.064 92.463-89.234zM1027.604 321.919l-46.893 45.528c-29.453 28.271-69.52 45.679-113.654 45.679s-84.2-17.408-113.71-45.732l0.056 0.054-78.97-76.818-128.305 124.373c-29.453 28.271-69.52 45.679-113.654 45.679s-84.2-17.408-113.71-45.732l0.056 0.054-257.024-248.581v484.787c0.786 51.765 42.933 93.427 94.811 93.427 0.542 0 1.083-0.005 1.623-0.014l-0.081 0.001h773.267c0.447 0.008 0.974 0.012 1.502 0.012 51.834 0 93.954-41.591 94.808-93.222l0.001-0.080zM1241.833 837.375c0 67.729-54.906 122.635-122.635 122.635v0h-843.090c-0.049 0-0.107 0-0.166 0-67.729 0-122.635-54.906-122.635-122.635 0 0 0 0 0 0v0-30.504h-30.669c-67.658-0.094-122.47-54.964-122.47-122.635 0-0.058 0-0.116 0-0.175v0.009-625.426c0-67.729 54.906-122.635 122.635-122.635v0h843.090c0.049 0 0.107 0 0.166 0 67.729 0 122.635 54.906 122.635 122.635 0 0 0 0 0 0v0 30.669h30.669c67.658 0.094 122.469 54.964 122.469 122.635v0zM1027.232 58.645c0-33.853-27.444-61.297-61.297-61.297h-843.131c-33.853 0-61.297 27.444-61.297 61.297v0 625.426c0 33.853 27.444 61.297 61.297 61.297h843.090c33.853 0 61.297-27.444 61.297-61.297v0zM1180.37 211.783c0-33.853-27.444-61.297-61.297-61.297h-30.379v533.584c0 0.049 0 0.107 0 0.166 0 67.729-54.906 122.635-122.635 122.635-0.058 0-0.116 0-0.175 0h-751.115v30.669c0 33.853 27.444 61.297 61.297 61.297v0h843.090c33.853 0 61.297-27.444 61.297-61.297v0z" />
<glyph unicode="&#xe90d;" glyph-name="star-alt" d="M482.973 910.807l-131.968-284.32-315.52-40.64c-15.85-2.074-27.962-15.495-27.962-31.744 0-9.44 4.088-17.925 10.589-23.782l0.029-0.025 233.376-210.080-62.88-315.264c-0.396-1.89-0.623-4.061-0.623-6.285 0-17.673 14.327-32 32-32 5.923 0 11.471 1.609 16.229 4.415l-0.149-0.081 275.872 159.904 276-159.904c4.598-2.708 10.13-4.308 16.036-4.308 17.673 0 32 14.327 32 32 0 2.204-0.223 4.356-0.647 6.434l0.035-0.206-62.88 315.296 233.376 210.080c6.514 5.881 10.591 14.356 10.591 23.783 0 16.229-12.081 29.636-27.74 31.719l-0.163 0.018-315.52 40.672-132.064 284.32c-5.21 11.029-16.242 18.524-29.024 18.524s-23.814-7.495-28.941-18.329l-0.083-0.195z" />
<glyph unicode="&#xe90e;" glyph-name="yelp-rating" d="M866.462-63.999h-708.923c-86.966 0.099-157.44 70.572-157.538 157.529v708.932c0.099 86.966 70.572 157.44 157.529 157.538h708.932c86.966-0.099 157.44-70.572 157.538-157.529v-708.932c-0.099-86.966-70.572-157.44-157.529-157.538h-0.009zM511.59 246.021v0l142.194-75.398c4.646-2.345 10.127-3.718 15.929-3.718 0.049 0 0.098 0 0.147 0h-0.008c1.278 0.021 2.513 0.146 3.713 0.368l-0.137-0.021c0.76 0.147 1.655 0.249 2.567 0.283l0.033 0.001c9.382 1.494 17.338 6.658 22.488 13.946l0.071 0.106c3.975 5.639 6.354 12.652 6.354 20.22 0 2.078-0.179 4.115-0.523 6.095l0.030-0.211-27.254 158.184 115.003 112.467c5.037 5.271 8.559 12.028 9.846 19.549l0.031 0.222c0.219 1.472 0.344 3.17 0.344 4.898 0 17.573-12.943 32.123-29.817 34.637l-0.192 0.023-158.799 22.859-71.066 143.974c-3.173 6.875-8.568 12.275-15.247 15.375l-0.192 0.080c-4.574 2.364-9.984 3.749-15.717 3.749-0.013 0-0.026 0-0.039 0h0.002c-13.404-0.030-24.994-7.763-30.583-19.005l-0.090-0.199-71.664-144.652-158.799-22.859c-7.847-0.89-14.716-4.505-19.756-9.861l-0.015-0.016c-6.157-6.177-9.963-14.699-9.963-24.11 0-9.721 4.061-18.494 10.58-24.714l0.013-0.013 115.003-111.852-27.27-158.106c-0.307-1.729-0.483-3.719-0.483-5.75 0-6.047 1.556-11.73 4.29-16.672l-0.090 0.177c6.027-11.198 17.653-18.687 31.031-18.716h0.004c5.813 0.006 11.29 1.438 16.102 3.967l-0.19-0.091 142.1 74.768z" />
<glyph unicode="&#xe90f;" glyph-name="close-alt" d="M25.205 82.905l851.891 851.891c33.605 33.605 88.092 33.605 121.699 0s33.605-88.092 0-121.699l-851.891-851.891c-33.605-33.605-88.092-33.605-121.699 0s-33.605 88.092 0 121.699zM146.904 934.796l851.891-851.891c33.605-33.605 33.605-88.092 0-121.699s-88.092-33.605-121.699 0l-851.891 851.891c-33.605 33.605-33.605 88.092 0 121.699s88.092 33.605 121.699 0z" />
<glyph unicode="&#xe910;" glyph-name="display" horiz-adv-x="1396" d="M1256.397 960h-1116.8c-77.097 0-139.597-62.5-139.597-139.597v-604.928c0-0.004 0-0.008 0-0.013 0-77.097 62.5-139.597 139.597-139.597h120.051l-60.032-60.032c-8.455-8.455-13.684-20.135-13.684-33.037 0-25.803 20.918-46.721 46.721-46.721 12.902 0 24.582 5.229 33.037 13.684v0l126.566 126.106h611.469l126.515-126.106c8.455-8.455 20.135-13.684 33.037-13.684 25.803 0 46.721 20.918 46.721 46.721 0 12.902-5.229 24.582-13.684 33.037v0l-60.032 60.032h120.051c77.097 0 139.597 62.5 139.597 139.597v0 604.941c0 77.075-62.463 139.56-139.529 139.597h-0.004zM1302.925 215.475c-0.007-25.691-20.836-46.515-46.528-46.515h-1116.8c-25.697 0-46.528 20.831-46.528 46.528v0 604.915c0 25.697 20.831 46.528 46.528 46.528v0h1116.8c25.697 0 46.528-20.831 46.528-46.528v0z" />
<glyph unicode="&#xe911;" glyph-name="arrow-right-alt" d="M241.223 938.956c12.801 12.994 30.59 21.044 50.258 21.044s37.456-8.050 50.249-21.035l440.82-440.82c12.994-12.801 21.044-30.59 21.044-50.258s-8.050-37.456-21.035-50.249l-440.82-440.82c-12.863-12.863-30.63-20.817-50.258-20.817-39.254 0-71.075 31.821-71.075 71.075 0 19.626 7.956 37.396 20.817 50.258v0l389.682 391.488-389.682 391.488c-12.438 12.707-20.113 30.118-20.113 49.323s7.675 36.616 20.125 49.335l-0.012-0.012z" />
<glyph unicode="&#xe912;" glyph-name="arrow-left-alt" d="M782.777 938.956c-12.801 12.994-30.59 21.044-50.258 21.044s-37.456-8.050-50.249-21.035l-440.82-440.82c-12.994-12.801-21.044-30.59-21.044-50.258s8.050-37.456 21.035-50.249l440.82-440.82c12.863-12.863 30.63-20.817 50.258-20.817 39.254 0 71.075 31.821 71.075 71.075 0 19.626-7.956 37.396-20.817 50.258v0l-389.682 391.488 389.682 391.488c12.438 12.707 20.113 30.118 20.113 49.323s-7.675 36.616-20.125 49.335l0.012-0.012z" />
<glyph unicode="&#xe913;" glyph-name="like-alt" d="M411.855-33.209c-1.996-0.043-4.351-0.067-6.71-0.067-50.125 0-97.678 11.010-140.374 30.744l2.075-0.86c-10.378-14.529-27.166-23.901-46.147-23.95h-163.537c-31.634 0.301-57.162 26.014-57.162 57.691 0 0.172 0.001 0.342 0.002 0.514v-0.026 471.388c-0.001 0.144-0.002 0.316-0.002 0.487 0 31.676 25.528 57.391 57.134 57.691h163.558c21.754-0.1 40.611-12.411 50.078-30.426l0.149-0.311c64.965 48.482 156.548 148.403 175.020 227.622 6.553 27.059 12.434 60.819 16.349 95.176l0.377 4.067c5.811 41.074 40.324 72.444 82.331 73.303l0.087 0.001h1.6c46.155 0 83.244-38.785 94.588-98.903 7.22-32.717 11.356-70.297 11.356-108.842s-4.136-76.125-11.988-112.318l0.633 3.477h270.383c33.958-1.279 64.239-16.022 85.849-39.011l0.060-0.065c16.417-18.666 26.436-43.307 26.436-70.289 0-4.275-0.251-8.49-0.741-12.633l0.048 0.502v-0.727c-1.977-33.884-19.807-63.224-46.12-80.921l-0.374-0.237c18.587-17.155 30.189-41.639 30.189-68.834 0-8.607-1.162-16.943-3.338-24.859l0.153 0.657c-5.48-24.693-21.449-44.845-42.88-55.877l-0.462-0.216c10.237-14.373 16.366-32.289 16.366-51.637 0-8.736-1.25-17.18-3.579-25.162l0.158 0.634c-6.184-27.574-24.285-49.99-48.484-61.917l-0.531-0.236c8.293-13.236 13.212-29.32 13.212-46.553 0-12.297-2.504-24.008-7.030-34.652l0.219 0.58c-15.647-43.91-56.861-74.775-105.284-74.775-0.672 0-1.341 0.006-2.010 0.018l0.1-0.001c-14.545 0-50.421 0-95.363 0h-14.012c-41.743 0-89.691 0-135.749 0-75.971 0-127.459 0-157.13-0.873zM513.425 851.292c-4.657-41.161-10.895-77.147-19.031-112.409l1.286 6.621c-23.417-100.308-140.937-224.762-218.168-273.437v-422.906c37.411-19.464 81.691-30.88 128.637-30.88 4.854 0 9.681 0.122 14.475 0.364l-0.674-0.027c30.544 0.533 82.419 0.873 158.003 0.873 49.5 0 99.97 0 147.724-0.34 45.621 0 82.419 0 97.303 0 0.585-0.020 1.274-0.032 1.965-0.032 26.846 0 49.635 17.374 57.736 41.491l0.125 0.43c1.632 4.297 2.577 9.268 2.577 14.457 0 17.005-10.144 31.64-24.711 38.184l-0.265 0.107c-8.462 4.361-14.148 13.039-14.148 23.044 0 2.357 0.316 4.638 0.907 6.808l-0.042-0.181c2.594 11.207 12.49 19.434 24.309 19.434 0.505 0 1.007-0.015 1.504-0.044l-0.068 0.003c1.199-0.105 2.593-0.165 4.002-0.165 21.955 0 40.526 14.493 46.666 34.434l0.092 0.345c0.753 3.060 1.185 6.572 1.185 10.187 0 18.862-11.773 34.976-28.372 41.392l-0.303 0.103c-9.499 4.008-16.046 13.245-16.046 24.010 0 1.244 0.087 2.468 0.257 3.666l-0.016-0.137c1.623 11.697 10.821 20.829 22.413 22.336l0.131 0.014c37.816 4.072 46.348 12.945 51.148 31.416 8.339 31.804-18.666 51.148-42.81 61.62-9.212 4.16-15.507 13.266-15.507 23.843 0 1.356 0.103 2.686 0.302 3.985l-0.018-0.145c1.718 11.602 11.016 20.585 22.627 21.808l0.111 0.009c28.348 3.349 50.525 25.874 53.31 54.098l0.020 0.25v1.26c0.258 2.008 0.406 4.332 0.406 6.689 0 13.654-4.938 26.154-13.125 35.813l0.066-0.081c-12.414 12.724-29.396 20.944-48.29 22.002l-0.191 0.009h-86.976q-109.133 0-218.168 0c-0.030 0-0.065 0-0.101 0-9.080 0-17.043 4.782-21.509 11.965l-0.062 0.108c-2.453 3.908-3.908 8.656-3.908 13.746 0 3.891 0.85 7.582 2.375 10.899l-0.067-0.162c12.492 37.685 19.698 81.068 19.698 126.134 0 34.383-4.194 67.785-12.099 99.724l0.595-2.843c-6.594 34.422-23.95 56.82-44.555 56.82-15.951-0.358-29.192-11.545-32.68-26.481l-0.045-0.232zM51.151 502.223v-471.388c-0.003-0.073-0.005-0.158-0.005-0.244 0-3.351 2.677-6.077 6.009-6.155h163.536c1.668 0.016 3.174 0.699 4.267 1.794v0c1.085 1.257 1.746 2.907 1.746 4.71 0 0.049 0 0.097-0.001 0.145v-0.007 471.388c0.002 0.060 0.003 0.132 0.003 0.203 0 3.39-2.656 6.159-5.998 6.342l-0.016 0.001h-163.529c-3.353-0.095-6.035-2.836-6.035-6.203 0-0.189 0.008-0.375 0.025-0.559l-0.002 0.024z" />
<glyph unicode="&#xe914;" glyph-name="comment" d="M158.063-19.604c-0.177-0.005-0.386-0.008-0.594-0.008-3.666 0-7.129 0.869-10.195 2.412l0.131-0.059c-8.809 4.057-14.815 12.81-14.815 22.965 0 0.039 0 0.077 0 0.116v-0.006 207.837l-11.245 4.637c-71.98 32.063-121.268 102.94-121.345 185.339v309.901c0.242 111.659 90.815 202.082 202.509 202.082 0 0 0 0 0 0h618.983c111.842 0 202.509-90.666 202.509-202.509v0-309.465c0-111.842-90.666-202.509-202.509-202.509v0h-395.958l-250.471-214.819c-4.421-3.685-10.162-5.922-16.425-5.922-0.202 0-0.403 0.002-0.605 0.007l0.030-0.001zM202.561 864.346c-83.375-0.091-150.938-67.654-151.029-151.020v-309.74c0.172-70.037 47.723-128.922 112.288-146.308l1.063-0.243c10.989-2.983 18.951-12.836 19.025-24.559v-171.182l215.885 184.923c4.278 3.806 9.945 6.132 16.157 6.132 0.128 0 0.255-0.001 0.383-0.003h404.998c83.559 0.031 151.304 67.7 151.455 151.228v309.746c-0.213 83.457-67.916 151.029-151.401 151.029-0.019 0-0.038 0-0.057 0h0.003z" />
<glyph unicode="&#xe915;" glyph-name="share-hover" horiz-adv-x="1027" d="M844.281 302.209c-0.129 0-0.281 0.001-0.434 0.001-57.697 0-109.071-27.073-142.111-69.208l-0.297-0.393-340.615 168.487c5.227 14.175 8.251 30.546 8.251 47.623s-3.024 33.448-8.565 48.606l0.314-0.983 340.615 168.487c34.121-41.691 85.581-68.089 143.207-68.089 42.862 0 82.313 14.605 113.648 39.109l-0.406-0.306c42.484 33.455 69.514 84.891 69.514 142.64 0 43.268-15.173 82.992-40.49 114.142l0.263-0.333c-34.121 41.691-85.581 68.089-143.207 68.089-42.862 0-82.313-14.605-113.648-39.109l0.406 0.306c-42.527-33.327-69.601-84.693-69.601-142.383 0-0.161 0-0.323 0.001-0.484v0.025c0.713-17.226 3.345-33.523 7.694-49.105l-0.359 1.508-340.615-168.487c-33.745 43.365-85.944 70.995-144.595 70.995-100.927 0-182.745-81.818-182.745-182.745s81.818-182.745 182.745-182.745c42.216 0 81.089 14.315 112.029 38.355l-0.413-0.309c12.003 10.189 22.791 20.977 32.648 32.579l0.331 0.4 340.615-168.487c-3.723-15.007-6.342-32.569-7.304-50.57l-0.031-0.72c0-101.126 81.979-183.104 183.104-183.104s183.104 81.979 183.104 183.104c0 101.126-81.979 183.104-183.104 183.104v0zM844.281 888.194c60.675 0 109.863-49.187 109.863-109.863s-49.187-109.863-109.863-109.863c-60.675 0-109.863 49.187-109.863 109.863v0c-0.014 0.648-0.022 1.411-0.022 2.176 0 59.486 48.223 107.708 107.708 107.708 0.765 0 1.529-0.008 2.29-0.024l-0.114 0.002zM185.053 339.086c-60.675 0-109.863 49.187-109.863 109.863s49.187 109.863 109.863 109.863c60.675 0 109.863-49.187 109.863-109.863v0c0.014-0.648 0.022-1.411 0.022-2.176 0-59.486-48.223-107.708-107.708-107.708-0.765 0-1.529 0.008-2.29 0.024l0.114-0.002zM844.281 9.498c-60.675 0-109.863 49.187-109.863 109.863s49.187 109.863 109.863 109.863c60.675 0 109.863-49.187 109.863-109.863v0c0.018-0.724 0.027-1.577 0.027-2.433 0-59.486-48.223-107.708-107.708-107.708-0.767 0-1.532 0.008-2.296 0.024l0.114-0.002z" />
<glyph unicode="&#xe916;" glyph-name="yelp-star" d="M669.775 166.921c-0.044 0-0.097 0-0.149 0-5.797 0-11.275 1.367-16.128 3.797l0.208-0.094-142.115 75.382-142.115-74.784c-4.646-2.433-10.148-3.861-15.985-3.861-13.366 0-24.983 7.488-30.886 18.498l-0.092 0.187c-2.641 4.748-4.196 10.414-4.196 16.442 0 2.050 0.18 4.058 0.524 6.009l-0.030-0.207 27.175 158.279-115.003 111.852c-6.488 6.252-10.518 15.016-10.518 24.722 0 9.402 3.782 17.921 9.907 24.119l-0.003-0.003c5.057 5.373 11.924 8.992 19.623 9.88l0.148 0.014 158.799 22.859 71.664 144.589c5.682 11.472 17.309 19.22 30.746 19.22 5.696 0 11.067-1.393 15.791-3.856l-0.189 0.090c6.866-3.194 12.261-8.588 15.374-15.262l0.081-0.193 71.050-143.974 158.799-22.859c17.063-2.498 30.017-17.033 30.017-34.593 0-1.746-0.128-3.462-0.375-5.139l0.023 0.19c-1.331-7.742-4.857-14.498-9.907-19.786l0.014 0.015-115.003-112.467 27.191-158.184c0.342-1.826 0.538-3.927 0.538-6.074 0-17.084-12.4-31.272-28.691-34.054l-0.204-0.029c-1.843 0-3.702-0.614-6.176-0.614z" />
<glyph unicode="&#xe917;" glyph-name="image-placeholder" horiz-adv-x="1005" d="M225.043 2.65c-8.264 0.798-14.673 7.707-14.673 16.112 0 8.938 7.245 16.183 16.183 16.183 0.532 0 1.058-0.026 1.576-0.076l-0.066 0.005 679.66-63.651 62.022 653.078-79.93 6.656c-8.344 0.713-14.846 7.661-14.846 16.128 0 8.938 7.246 16.184 16.184 16.184 0.471 0 0.937-0.020 1.398-0.060l-0.060 0.004 112.575-9.299-68.193-717.916zM0 118.516v841.484h841.484v-841.484zM32.365 150.881h776.755v118.671h-776.755zM809.119 301.916v625.719h-776.755v-625.719h130.322l124.453 211.569c2.865 4.807 8.036 7.978 13.948 7.978 5.067 0 9.59-2.329 12.557-5.974l0.023-0.030 92.606-114.356 102.769 224.051c2.62 5.617 8.219 9.44 14.711 9.44 0.002 0 0.003 0 0.005 0h0.431c6.622-0.182 12.235-4.315 14.579-10.119l0.039-0.109 127.657-322.45zM631.653 301.916l-108.961 275.262-97.871-213.295c-2.62-5.615-8.219-9.437-14.71-9.437-5.063 0-9.583 2.325-12.551 5.966l-0.023 0.029-94.386 116.502-102.909-175.029zM140.247 722.658c0 47.666 38.641 86.306 86.306 86.306s86.306-38.641 86.306-86.306c0-47.666-38.641-86.306-86.306-86.306v0c-47.666 0-86.306 38.641-86.306 86.306v0zM172.612 722.658c0-29.791 24.15-53.941 53.941-53.941s53.941 24.15 53.941 53.941c0 29.791-24.15 53.941-53.941 53.941v0c-29.779-0.031-53.911-24.163-53.941-53.938v-0.003z" />
<glyph unicode="&#xe918;" glyph-name="play-fill" d="M512-64c-282.701 0.193-511.801 229.412-511.801 512.14 0 210.746 127.294 391.762 309.189 470.353l3.32 1.277c58.817 25.521 127.321 40.368 199.292 40.368 282.841 0 512.129-229.288 512.129-512.129 0-210.87-127.446-391.973-309.513-470.486l-3.324-1.276c-58.525-25.445-126.697-40.247-198.327-40.247-0.339 0-0.679 0-1.018 0.001h0.053zM356.848 696.242v-512l434.424 256z" />
<glyph unicode="&#xe919;" glyph-name="Oops" horiz-adv-x="3352" d="M432.568 115.325c249.893 0 431.528 188.576 431.528 418.802v2.315c0 230.225-179.322 416.487-429.214 416.487s-431.527-188.577-431.527-418.802v-2.314c0-230.225 179.321-416.488 429.214-416.488zM434.881 279.606c-143.457 0-245.264 115.691-245.264 254.52v2.315c0 138.829 99.494 252.206 242.951 252.206s245.265-115.692 245.265-254.521v-2.314c0-138.829-99.494-252.206-242.952-252.206zM1307.899 115.325c193.198 0 336.654 144.614 336.654 322.778v2.314c0 178.164-142.297 320.465-334.346 320.465-193.198 0-336.654-144.614-336.654-322.778v-2.314c0-178.164 142.297-320.465 334.346-320.465zM1310.208 266.88c-97.174 0-163.125 79.827-163.125 171.222v2.314c0 91.396 60.165 168.909 160.816 168.909 97.174 0 163.125-79.827 163.125-171.222v-2.314c0-91.396-60.165-168.909-160.816-168.909zM1771.887 25.086c0-48.59 39.337-87.927 87.929-87.927s87.929 39.337 87.929 87.927v185.105c41.646-49.747 99.492-92.553 193.198-92.553 146.934 0 282.286 113.378 282.286 320.465v2.314c0 207.087-137.67 320.465-282.286 320.465-91.397 0-150.393-42.806-193.198-100.651v8.098c0 48.59-39.337 87.925-87.929 87.925s-87.929-39.335-87.929-87.925v-643.242zM2095.829 266.88c-82.142 0-150.402 68.257-150.402 171.222v2.314c0 102.965 68.26 171.222 150.402 171.222s151.552-68.257 151.552-171.222v-2.314c0-104.122-69.41-171.222-151.552-171.222zM2770.075 117.638c134.202 0 237.172 62.474 237.172 200.146v2.314c0 113.378-100.651 155.027-187.421 183.949-67.101 23.139-126.107 39.335-126.107 74.042v2.315c0 24.295 21.987 42.805 64.792 42.805 37.019 0 84.451-15.039 134.202-39.335 11.563-5.785 19.669-8.098 32.391-8.098 39.337 0 70.569 30.080 70.569 69.415 0 30.080-16.191 53.218-41.646 65.945-60.165 30.080-127.256 47.433-192.048 47.433-124.947 0-226.758-70.572-226.758-196.676v-2.314c0-120.318 98.343-160.811 185.112-186.263 68.251-20.824 128.415-33.55 128.415-71.728v-2.314c0-27.766-23.137-46.276-74.047-46.276-49.741 0-108.747 18.51-167.752 55.532-9.255 5.785-21.977 9.255-34.7 9.255-39.337 0-69.419-30.080-69.419-69.415 0-27.766 15.041-48.59 33.55-60.159 75.196-48.591 157.339-70.572 233.694-70.572zM3188.823 448.515c3.478-31.237 24.296-50.903 53.219-50.903s49.751 19.667 53.219 50.903l49.751 434.999c3.468 33.55-15.041 59.002-46.283 59.002h-113.374c-31.232 0-49.751-25.452-46.273-59.002l49.741-434.999zM3141.39 222.917v-2.314c0-55.532 42.805-98.337 100.651-98.337s100.651 42.805 100.651 98.337v2.314c0 55.532-42.805 98.338-100.651 98.338s-100.651-42.806-100.651-98.338z" />
<glyph unicode="&#xe91a;" glyph-name="more" d="M597.333 746.667c0-47.128-38.205-85.333-85.333-85.333s-85.333 38.205-85.333 85.333c0 47.128 38.205 85.333 85.333 85.333s85.333-38.205 85.333-85.333zM597.333 448c0-47.128-38.205-85.333-85.333-85.333s-85.333 38.205-85.333 85.333c0 47.128 38.205 85.333 85.333 85.333s85.333-38.205 85.333-85.333zM597.333 149.333c0-47.128-38.205-85.333-85.333-85.333s-85.333 38.205-85.333 85.333c0 47.128 38.205 85.333 85.333 85.333s85.333-38.205 85.333-85.333z" />
<glyph unicode="&#xe91b;" glyph-name="youtube-alt" horiz-adv-x="1453" d="M726.698-64c-1.133 0-115.082 0.043-241.411 3.821-74.198 2.217-138.085 5.271-189.881 9.074-64.747 4.75-110.684 10.696-136.536 17.664-32.094 8.931-59.615 25.419-81.548 47.471l-0.008 0.008c-21.906 22.058-38.23 49.686-46.661 80.571l-0.298 1.282c-7.507 29.098-13.695 64.205-17.297 100.075l-0.25 3.072c-3.778 33.934-6.813 72.861-9.012 115.689-3.747 72.916-3.79 132.671-3.79 133.266s0.043 60.356 3.79 133.272c2.205 42.828 5.234 81.755 9.012 115.689 3.851 38.94 10.039 74.044 18.623 108.197l-1.076-5.056c8.73 32.169 25.057 59.797 46.975 81.864l-0.010-0.010c21.943 22.059 49.467 38.546 80.276 47.166l1.287 0.307c25.852 6.974 71.789 12.92 136.536 17.67 51.809 3.803 115.695 6.856 189.881 9.074 126.348 3.778 240.309 3.821 241.417 3.821s115.088-0.043 241.417-3.821c74.186-2.217 138.066-5.271 189.881-9.074 64.747-4.757 110.684-10.702 136.536-17.67 32.092-8.931 59.611-25.42 81.542-47.471l0.008-0.008c21.904-22.056 38.229-49.682 46.661-80.565l0.298-1.282c7.501-29.094 13.686-64.203 17.29-100.074l0.25-3.079c3.772-33.934 6.813-72.854 9.012-115.689 3.747-72.923 3.79-132.678 3.79-133.272s-0.043-60.35-3.79-133.266c-2.205-42.828-5.234-81.755-9.012-115.689-3.852-38.943-10.039-74.049-18.623-108.205l1.077 5.058c-8.732-32.165-25.056-59.791-46.97-81.858l0.010 0.010c-21.938-22.060-49.455-38.551-80.257-47.178l-1.287-0.308c-25.852-6.968-71.789-12.913-136.536-17.664-51.796-3.803-115.683-6.856-189.881-9.074-126.354-3.766-240.303-3.809-241.436-3.809zM578.054 664.104v0-432.209l379.867 216.092-379.867 216.117z" />
<glyph unicode="&#xe91c;" d="M950.315 438.3c0.037 1.969 0.057 4.291 0.057 6.617 0 29.936-3.446 59.067-9.964 87.018l0.507-2.579h-418.184v-165.287h245.46c-4.948-41.083-31.67-102.94-91.056-144.507l-0.834-5.519 132.219-102.4 9.161-0.914c84.127 77.695 132.629 192.015 132.629 327.613z" />
<glyph unicode="&#xe91d;" d="M522.737 2.805c120.256 0 221.209 39.593 294.937 107.882l-140.509 108.875c-37.612-26.232-88.089-44.541-154.403-44.541-117.777 0.7-217.496 77.226-252.859 183.194l-0.548 1.893-5.224-0.441-137.486-106.404-1.797-4.997c74.803-146.726 224.771-245.466 397.802-245.466 0.030 0 0.061 0 0.091 0h-0.005z" />
<glyph unicode="&#xe91e;" d="M269.355 360.108c-9.309 26.245-14.736 56.515-14.845 88.039v0.050c0.194 31.554 5.43 61.819 14.941 90.121l-0.592-2.032-0.251 5.905-139.203 108.109-4.556-2.165c-29.951-58.209-47.508-127.022-47.508-199.934s17.557-141.725 48.674-202.44l-1.166 2.505 144.507 111.843z" />
<glyph unicode="&#xe91f;" d="M522.737 721.377c1.14 0.019 2.485 0.030 3.833 0.030 65.148 0 124.402-25.237 168.518-66.469l-0.141 0.131 125.701 122.733c-76.342 71.744-179.407 115.823-292.767 115.823-1.809 0-3.614-0.011-5.418-0.034l0.274 0.003c-0.027 0-0.058 0-0.089 0-173.028 0-322.996-98.737-396.632-242.941l-1.167-2.518 144.010-111.843c36.128 107.391 136.125 185.086 253.854 185.086z" />
<glyph unicode="&#xe920;" glyph-name="taggbox" horiz-adv-x="3413" d="M1369.908 164.168c-2.465 4.943-3.908 10.767-3.908 16.929 0 15.295 8.891 28.513 21.786 34.769l0.23 0.101c4.961 2.43 10.796 3.851 16.963 3.851 15.057 0 28.135-8.469 34.732-20.904l0.103-0.213c19.78-39.962 60.275-66.956 107.074-66.956 64.914 0 117.697 51.935 119.066 116.52l0.002 0.128v42.954c-32.694-24.767-73.909-39.868-118.626-40.426l-0.13-0.001c-0.302-0.002-0.66-0.003-1.018-0.003-108.48 0-196.42 87.94-196.42 196.42s87.94 196.42 196.42 196.42c108.48 0 196.42-87.94 196.42-196.42 0-0.209 0-0.419-0.001-0.628v0.033-196.243c-0.049-108.412-87.945-196.279-196.365-196.279-76.988 0-143.629 44.306-175.814 108.811l-0.514 1.138zM1428.444 447.583c0-65.587 53.169-118.756 118.756-118.756s118.756 53.169 118.756 118.756c0 65.587-53.169 118.756-118.756 118.756v0c-65.586 0-118.754-53.167-118.756-118.752v0zM1808.296 164.168c-2.54 4.98-4.028 10.862-4.028 17.091 0 15.281 8.955 28.471 21.904 34.607l0.232 0.099c4.962 2.431 10.797 3.852 16.965 3.852 15.056 0 28.135-8.47 34.73-20.905l0.103-0.213c19.78-39.962 60.275-66.956 107.074-66.956 64.914 0 117.697 51.935 119.066 116.52l0.002 0.128v42.954c-32.719-24.709-73.916-39.798-118.61-40.426l-0.146-0.002c-108.382 0-196.243 87.861-196.243 196.243s87.861 196.243 196.243 196.243v0c107.386 0 195.4-88.014 195.822-196.664v-196.243c-0.429-108.209-88.034-195.814-196.201-196.243h-1.549c-76.711 0.003-143.068 44.332-174.854 108.771l-0.509 1.142zM1866.832 447.583c0-65.587 53.169-118.756 118.756-118.756s118.756 53.169 118.756 118.756c0 65.587-53.169 118.756-118.756 118.756v0c-65.586 0-118.754-53.167-118.756-118.752v0zM0 442.955c0 164.433 133.3 297.733 297.733 297.733s297.733-133.3 297.733-297.733c0-164.433-133.3-297.733-297.733-297.733v0c-164.433 0-297.733 133.3-297.733 297.733v0zM24.004 442.955c0-151.176 122.553-273.729 273.729-273.729s273.729 122.553 273.729 273.729c0 151.176-122.553 273.729-273.729 273.729v0c-151.176 0-273.729-122.553-273.729-273.729v0zM195.030 200.81c-95.616 40.992-161.378 134.31-161.378 242.987 0 145.594 118.028 263.622 263.622 263.622s263.622-118.028 263.622-263.622c0-145.581-118.006-263.601-263.582-263.622h-0.002c-0.056 0-0.122 0-0.189 0-36.869 0-71.963 7.598-103.803 21.314l1.705-0.654zM109.492 432.427h109.070v-143.181l162.553 143.181h104.859v117.493h-376.483zM782.444 282.087c-20.276 19.681-32.858 47.19-32.858 77.639 0 0.539 0.004 1.077 0.012 1.614l-0.001-0.081v245.514h-40.428c-9.869 0.060-18.789 4.071-25.268 10.529l0.001-0.001c-6.495 6.154-10.537 14.842-10.537 24.474 0 0.279 0.003 0.557 0.010 0.835l-0.001-0.041v0.842c0.052 10.003 4.059 19.060 10.535 25.696l-0.007-0.007c6.25 6.743 15.155 10.95 25.042 10.95 0.079 0 0.158 0 0.237-0.001h40.416v125.915c0.052 10.003 4.059 19.060 10.535 25.696l-0.007-0.007c6.069 6.253 14.553 10.133 23.943 10.133 0.466 0 0.929-0.010 1.39-0.028l-0.066 0.002h1.263c0.116 0.001 0.253 0.002 0.39 0.002 9.68 0 18.459-3.856 24.885-10.117l-0.008 0.007c6.503-6.403 10.532-15.303 10.532-25.143 0-0.192-0.002-0.383-0.005-0.574v0.029-124.231h2.948v-1.263h68.222c9.954-0.019 18.923-4.217 25.251-10.932l0.016-0.017c6.503-6.405 10.532-15.306 10.532-25.148 0-0.19-0.002-0.38-0.004-0.569v0.029-0.842c-0.059-9.869-4.070-18.789-10.529-25.268l0.001 0.001c-6.154-6.495-14.842-10.537-24.474-10.537-0.279 0-0.557 0.003-0.835 0.010l0.041-0.001h-68.222v-1.684h-2.948v-243.408c-0.005-0.221-0.007-0.482-0.007-0.743 0-10.464 4.361-19.909 11.365-26.617l0.013-0.013c6.965-7.272 16.754-11.792 27.598-11.792 0.069 0 0.138 0 0.207 0.001h31.573c9.997-0.512 18.953-4.586 25.708-10.967l-0.019 0.018c6.502-6.301 10.538-15.114 10.538-24.87 0-0.288-0.004-0.575-0.010-0.861l0.001 0.042v-0.842c-0.059-9.869-4.070-18.789-10.529-25.268l0.001 0.001c-6.25-6.743-15.155-10.95-25.042-10.95-0.079 0-0.158 0-0.237 0.001h-32.869c-0.002 0-0.004 0-0.006 0-30.65 0-58.365 12.566-78.274 32.827l-0.015 0.016zM3107.877 259.346c-9.33 6.983-15.304 18.008-15.304 30.428 0 8.901 3.068 17.085 8.205 23.553l-0.060-0.078 103.175 133.917-103.175 133.917c-5.067 6.51-8.123 14.803-8.123 23.809 0 12.568 5.952 23.746 15.192 30.869l0.091 0.067c6.39 5.077 14.574 8.145 23.475 8.145 12.42 0 23.445-5.974 30.358-15.206l0.071-0.099 91.383-117.914 91.383 117.914c6.836 9.377 17.783 15.401 30.136 15.401 8.874 0 17.023-3.109 23.415-8.296l-0.069 0.054c9.32-7.199 15.264-18.378 15.264-30.945 0-9.001-3.049-17.29-8.171-23.889l0.066 0.089-103.175-133.917 103.175-133.917c5.077-6.39 8.145-14.574 8.145-23.475 0-12.42-5.974-23.445-15.206-30.358l-0.099-0.071c-6.234-5.209-14.323-8.385-23.154-8.422h-0.008c-12.247 0.095-23.144 5.797-30.261 14.663l-0.059 0.077-91.383 117.914-91.383-117.914c-6.998-9.026-17.843-14.78-30.031-14.78-9.080 0-17.414 3.193-23.941 8.517l0.069-0.054zM2663.173 447.166c0 108.382 87.861 196.243 196.243 196.243s196.243-87.861 196.243-196.243c0-108.382-87.861-196.243-196.243-196.243v0c-108.382 0-196.243 87.861-196.243 196.243v0zM2740.659 447.587c0-65.587 53.169-118.756 118.756-118.756s118.756 53.169 118.756 118.756c0 65.587-53.169 118.756-118.756 118.756v0c-65.587 0-118.756-53.169-118.756-118.756v0zM1265.049 252.187c-15.581 0-37.48 16.845-37.48 39.164-33.69-28.636-71.17-39.164-115.808-39.164-109.913 0-197.506 82.119-197.506 192.031-0.002 0.314-0.003 0.684-0.003 1.056 0 108.498 87.955 196.453 196.453 196.453 0.371 0 0.742-0.001 1.113-0.003h-0.057c109.913 0 192.031-87.593 192.453-197.085v-153.288c0.014-0.383 0.022-0.833 0.022-1.284 0-20.931-16.967-37.899-37.897-37.901v0c-0.446 0-0.868 0.008-1.289 0.021zM990.478 444.639c0-66.116 55.588-115.808 121.283-115.808s115.808 49.692 115.808 115.387-50.113 121.704-115.808 121.704c-66.605-0.935-120.35-54.682-121.282-121.198l-0.001-0.089zM2421.12 252.608h-0.093c-107.807 0-195.822 89.278-195.822 196.243v350.794c0 21.397 17.346 38.743 38.743 38.743s38.743-17.346 38.743-38.743v-194.558c32.596 24.712 73.836 39.586 118.55 39.586 0.073 0 0.145 0 0.218 0h-0.012c0.503 0.005 1.097 0.007 1.692 0.007 107.219 0 194.137-86.918 194.137-194.137 0-0.595-0.003-1.189-0.008-1.783l0.001 0.091c0-0.030 0-0.066 0-0.101 0-108.323-87.811-196.137-196.133-196.142v0zM2302.693 448.846c0-65.587 53.169-118.756 118.756-118.756s118.756 53.169 118.756 118.756c0 65.587-53.169 118.756-118.756 118.756v0c-65.587 0-118.756-53.169-118.756-118.756v0z" />
<glyph unicode="&#xe921;" glyph-name="play" d="M1023.734 464.706c-8.59 268.997-226.031 486.43-495.021 495.021-146.367 4.644-283.302-51.068-384.503-155.554-97.29-100.446-148.408-232.867-143.937-372.886 8.583-268.99 226.024-486.43 495.013-495.013 5.6-0.18 11.15-0.266 16.713-0.266 139.847 0 270.463 55.338 367.79 155.82 97.29 100.439 148.416 232.867 143.944 372.879zM802.34 166.84c-76.832-79.326-179.945-123.011-290.34-123.011-4.414 0-8.828 0.072-13.277 0.208-212.293 6.779-383.899 178.385-390.685 390.685-3.53 110.575 36.82 215.14 113.623 294.43 76.832 79.326 179.945 123.011 290.34 123.011 4.414 0 8.828-0.072 13.277-0.208 212.293-6.779 383.899-178.385 390.685-390.685 3.53-110.575-36.827-215.14-113.623-294.43zM679.933 477.746l-227.044 162.793c-24.218 17.368-57.933 0.058-57.933-29.746v-325.593c0-29.804 33.714-47.114 57.933-29.746l227.037 162.8c20.372 14.6 20.372 44.886 0.007 59.493z" />
<glyph unicode="&#xe922;" glyph-name="calendar" horiz-adv-x="931" d="M465.47 122.162c25.71 0 46.551 20.842 46.551 46.551s-20.842 46.551-46.551 46.551c-25.71 0-46.551-20.842-46.551-46.551v0c0-25.71 20.842-46.551 46.551-46.551v0zM698.012 122.162c25.71 0 46.551 20.842 46.551 46.551s-20.842 46.551-46.551 46.551c-25.71 0-46.551-20.842-46.551-46.551v0c0-25.71 20.842-46.551 46.551-46.551v0zM698.012 308.368c25.71 0 46.551 20.842 46.551 46.551s-20.842 46.551-46.551 46.551c-25.71 0-46.551-20.842-46.551-46.551v0c0-25.71 20.842-46.551 46.551-46.551v0zM465.47 308.368c25.71 0 46.551 20.842 46.551 46.551s-20.842 46.551-46.551 46.551c-25.71 0-46.551-20.842-46.551-46.551v0c0-25.71 20.842-46.551 46.551-46.551v0zM791.33 867.027h-46.551v46.422c-0.787 25.093-21.318 45.136-46.53 45.136s-45.742-20.042-46.528-45.063l-0.002-0.072v-46.508h-372.454v46.508c-0.787 25.093-21.318 45.136-46.53 45.136s-45.742-20.042-46.528-45.063l-0.002-0.072v-46.508h-46.594c-77.060 0-139.537-62.432-139.611-139.475v-651.855c0-77.105 62.506-139.611 139.611-139.611v0h651.719c77.105 0 139.611 62.506 139.611 139.611v651.848c0 0.013 0 0.028 0 0.043 0 77.105-62.506 139.611-139.611 139.611v0zM837.881 75.697c0-25.71-20.842-46.551-46.551-46.551v0h-651.719c-25.71 0-46.551 20.842-46.551 46.551v0 418.833h744.778zM837.881 587.719h-744.821v139.74c0.122 25.617 20.917 46.336 46.551 46.336 0 0 0 0 0.001 0h46.551v-46.336c0.787-25.093 21.318-45.136 46.53-45.136s45.742 20.042 46.528 45.063l0.002 0.072v46.336h372.368v-46.336c0.787-25.093 21.318-45.136 46.53-45.136s45.742 20.042 46.528 45.063l0.002 0.072v46.336h46.551c0 0 0 0 0 0 25.634 0 46.429-20.719 46.551-46.324v-0.012zM232.541 308.368c25.71 0 46.551 20.842 46.551 46.551s-20.842 46.551-46.551 46.551c-25.71 0-46.551-20.842-46.551-46.551v0c0-25.71 20.842-46.551 46.551-46.551v0zM232.541 122.162c25.71 0 46.551 20.842 46.551 46.551s-20.842 46.551-46.551 46.551c-25.71 0-46.551-20.842-46.551-46.551v0c0-25.71 20.842-46.551 46.551-46.551v0z" />
<glyph unicode="&#xe923;" horiz-adv-x="1453" d="M726.698-64c-1.133 0-115.082 0.043-241.411 3.821-74.198 2.217-138.085 5.271-189.881 9.074-64.747 4.75-110.684 10.696-136.536 17.664-32.094 8.931-59.615 25.419-81.548 47.471l-0.008 0.008c-21.906 22.058-38.23 49.686-46.661 80.571l-0.298 1.282c-7.507 29.098-13.695 64.205-17.297 100.075l-0.25 3.072c-3.778 33.934-6.813 72.861-9.012 115.689-3.747 72.916-3.79 132.671-3.79 133.266s0.043 60.356 3.79 133.272c2.205 42.828 5.234 81.755 9.012 115.689 3.851 38.94 10.039 74.044 18.623 108.197l-1.076-5.056c8.73 32.169 25.057 59.797 46.975 81.864l-0.010-0.010c21.943 22.059 49.467 38.546 80.276 47.166l1.287 0.307c25.852 6.974 71.789 12.92 136.536 17.67 51.809 3.803 115.695 6.856 189.881 9.074 126.348 3.778 240.309 3.821 241.417 3.821s115.088-0.043 241.417-3.821c74.186-2.217 138.066-5.271 189.881-9.074 64.747-4.757 110.684-10.702 136.536-17.67 32.092-8.931 59.611-25.42 81.542-47.471l0.008-0.008c21.904-22.056 38.229-49.682 46.661-80.565l0.298-1.282c7.501-29.094 13.686-64.203 17.29-100.074l0.25-3.079c3.772-33.934 6.813-72.854 9.012-115.689 3.747-72.923 3.79-132.678 3.79-133.272s-0.043-60.35-3.79-133.266c-2.205-42.828-5.234-81.755-9.012-115.689-3.852-38.943-10.039-74.049-18.623-108.205l1.077 5.058c-8.732-32.165-25.056-59.791-46.97-81.858l0.010 0.010c-21.938-22.060-49.455-38.551-80.257-47.178l-1.287-0.308c-25.852-6.968-71.789-12.913-136.536-17.664-51.796-3.803-115.683-6.856-189.881-9.074-126.354-3.766-240.303-3.809-241.436-3.809zM578.054 664.104v0-432.209l379.867 216.092-379.867 216.117z" />
<glyph unicode="&#xe924;" horiz-adv-x="1453" d="M578.060 231.896l379.867 216.092-379.867 216.117z" />
<glyph unicode="&#xe927;" glyph-name="toggle" d="M597.333 746.667c0-47.128-38.205-85.333-85.333-85.333s-85.333 38.205-85.333 85.333c0 47.128 38.205 85.333 85.333 85.333s85.333-38.205 85.333-85.333zM597.333 448c0-47.128-38.205-85.333-85.333-85.333s-85.333 38.205-85.333 85.333c0 47.128 38.205 85.333 85.333 85.333s85.333-38.205 85.333-85.333zM597.333 149.333c0-47.128-38.205-85.333-85.333-85.333s-85.333 38.205-85.333 85.333c0 47.128 38.205 85.333 85.333 85.333s85.333-38.205 85.333-85.333z" />
<glyph unicode="&#xe929;" glyph-name="share-in-alt" d="M470.922 441.44l298.95 298.95-543.546-181.182 244.596-117.768zM79.557 600.234l760.477 253.492c17.884 5.961 37.214-3.704 43.176-21.588 2.335-7.006 2.335-14.581 0-21.588l-253.492-760.477c-5.961-17.884-25.292-27.549-43.176-21.588-8.756 2.919-15.956 9.258-19.96 17.574l-159.587 331.45-331.45 159.587c-16.985 8.178-24.125 28.577-15.947 45.562 4.004 8.316 11.205 14.656 19.96 17.574z" />
<glyph unicode="&#xe92d;" glyph-name="add-image" horiz-adv-x="1346" d="M102.418 960c-56.472-0.228-102.189-45.946-102.418-102.396v-672.939c0.228-56.472 45.946-102.189 102.396-102.418h792.269c35.754-86.412 119.397-146.101 216.981-146.101 129.331 0 234.175 104.844 234.175 234.175 0 97.584-59.689 181.227-144.548 216.411l-1.553 0.57v470.279c-0.228 56.472-45.946 102.189-102.396 102.418h-0.022zM102.418 901.681h994.751c0.215 0.004 0.469 0.006 0.724 0.006 23.835 0 43.156-19.322 43.156-43.156 0-0.255-0.002-0.509-0.007-0.762l0.001 0.038v-455.789c-8.66 1.302-18.782 2.128-29.067 2.286l-0.183 0.002c-1.391 0-2.737-0.449-4.127-0.449l-177.381 140.819c-4.947 3.684-11.179 5.899-17.927 5.899-7.263 0-13.927-2.565-19.136-6.838l0.053 0.042-202.952-171.908-259.252 285.855c-5.552 5.505-13.196 8.908-21.636 8.908-7.226 0-13.869-2.494-19.116-6.668l0.063 0.048-331.972-293.481v491.050c-0.004 0.229-0.007 0.5-0.007 0.771 0 23.835 19.322 43.156 43.156 43.156 0.302 0 0.604-0.003 0.904-0.009l-0.045 0.001zM717.015 784.638c-56.564 0-102.418-45.854-102.418-102.418s45.854-102.418 102.418-102.418c56.564 0 102.418 45.854 102.418 102.418v0c-0.356 56.463-46.147 102.112-102.63 102.238h-0.012zM717.015 726.318c24.231 0 43.874-19.643 43.874-43.874s-19.643-43.874-43.874-43.874c-24.231 0-43.874 19.643-43.874 43.874v0c0 0 0 0 0 0 0 24.008 19.462 43.47 43.47 43.47 0.063 0 0.126 0 0.189 0h-0.010zM407.474 597.388l258.759-285.72c5.495-5.493 13.086-8.89 21.47-8.89 7.175 0 13.769 2.488 18.966 6.648l-0.060-0.047 206.63 174.644 118.389-94.208c-90.215-33.825-153.317-119.215-153.604-219.38v-0.035c0.159-10.466 0.985-20.589 2.439-30.507l-0.151 1.258h-777.892c-0.215-0.004-0.469-0.006-0.724-0.006-23.835 0-43.156 19.322-43.156 43.156 0 0.255 0.002 0.509 0.007 0.762l-0.001-0.038v103.764zM1111.793 346.165c96.949 0 175.542-78.593 175.542-175.542s-78.593-175.542-175.542-175.542c-96.949 0-175.542 78.593-175.542 175.542v0c0 0 0 0.001 0 0.001 0 96.627 78.332 174.958 174.958 174.958 0.205 0 0.41 0 0.615-0.001h-0.032zM1086.357 44.070v246.018h42.080v-246.018zM983.446 146.264v41.766h247.903v-41.766z" />
<glyph unicode="&#xe92e;" glyph-name="camera" horiz-adv-x="1311" d="M1133.773 625.070c19.070 0 34.529-15.459 34.529-34.529s-15.459-34.529-34.529-34.529c-19.070 0-34.529 15.459-34.529 34.529v0c0 19.070 15.459 34.529 34.529 34.529v0zM655.36 611.84c-124.22 0-225.28-101.060-225.28-225.28s101.060-225.28 225.28-225.28c124.22 0 225.28 101.060 225.28 225.28s-101.060 225.28-225.28 225.28zM655.36 673.28c158.351 0 286.72-128.369 286.72-286.72s-128.369-286.72-286.72-286.72c-158.351 0-286.72 128.369-286.72 286.72s128.369 286.72 286.72 286.72zM1146.876-2.568c56.475 0 102.42 45.946 102.42 102.42v532.464c0 56.475-45.946 102.42-102.42 102.42h-225.264v61.44c0 56.454-45.946 102.384-102.42 102.384h-327.684c-56.454 0-102.384-45.929-102.384-102.384v-61.44h-225.3c-56.454 0-102.384-45.946-102.384-102.42v-532.464c0-56.475 45.929-102.42 102.384-102.42h983.052zM1146.876-64.008h-983.052c-90.464 0-163.824 73.359-163.824 163.86v532.464c0 90.501 73.359 163.86 163.824 163.86h163.86c0 90.464 73.359 163.824 163.824 163.824h327.684c90.501 0 163.86-73.359 163.86-163.824h163.824c90.501 0 163.86-73.359 163.86-163.86v-532.464c0-90.501-73.359-163.86-163.86-163.86z" />
<glyph unicode="&#xe92f;" glyph-name="share-in" d="M1019.733 878.933c-6.4 10.667-17.067 17.067-27.733 17.067h-960c-12.8-2.133-25.6-10.667-29.867-21.333s-2.133-25.6 6.4-36.267l339.2-332.8 117.333-482.133c2.133-12.8 12.8-21.333 25.6-23.467h4.267c10.667 0 21.333 6.4 27.733 14.933l494.933 832c8.533 8.533 8.533 21.333 2.133 32zM110.933 829.867h757.333l-484.267-268.8-273.067 268.8zM509.867 113.067l-93.867 392.533 488.533 270.933-394.667-663.467z" />
<glyph unicode="&#xe930;" glyph-name="Mail" d="M213.333 704h597.333c47.128 0 85.333-38.205 85.333-85.333v-384c0-47.128-38.205-85.333-85.333-85.333h-597.333c-47.128 0-85.333 38.205-85.333 85.333v384c0 47.128 38.205 85.333 85.333 85.333zM774.162 625.508l-262.162-141.164-262.162 141.164c-15.561 8.379-34.967 2.557-43.346-13.004s-2.557-34.967 13.004-43.346l277.333-149.333c9.471-5.1 20.871-5.1 30.342 0l277.333 149.333c15.561 8.379 21.383 27.786 13.004 43.346s-27.786 21.383-43.346 13.004z" />
<glyph unicode="&#xe931;" glyph-name="open-link" d="M1024 447.986v-399.612c0-62.077-50.324-112.401-112.401-112.401v0h-799.198c-62.077 0-112.401 50.324-112.401 112.401v0 799.225c0 62.077 50.324 112.401 112.401 112.401v0h399.612c20.692 0 37.467-16.775 37.467-37.467s-16.775-37.467-37.467-37.467h-399.612c-20.692 0-37.467-16.775-37.467-37.467v0-799.225c0-20.692 16.775-37.467 37.467-37.467v0h799.225c20.692 0 37.467 16.775 37.467 37.467v0 399.612c0 20.692 16.775 37.467 37.467 37.467s37.467-16.775 37.467-37.467v0zM1024.027 922.533v-243.004c0-20.692-16.775-37.467-37.467-37.467s-37.467 16.775-37.467 37.467v0 152.597l-410.61-410.61c-6.649-6.127-15.564-9.884-25.356-9.884-20.692 0-37.467 16.775-37.467 37.467 0 9.792 3.757 18.708 9.908 25.383l-0.024-0.026 410.61 410.61h-152.624c-20.692 0-37.467 16.775-37.467 37.467s16.775 37.467 37.467 37.467h243.004c4.929-0.048 9.611-1.046 13.891-2.819l-0.247 0.091c9.334-3.888 16.606-11.16 20.402-20.246l0.092-0.247c1.924-4.181 3.105-9.057 3.246-14.194l0.001-0.051z" />
<glyph unicode="&#xe932;" glyph-name="bag" d="M983.603 231.27c-3.43 103.219-11.162 206.285-17.357 309.402-0.776 32.899-3.689 64.429-8.616 95.287l0.526-3.997c-12.292 65.938-69.385 115.19-137.982 115.19-1.189 0-2.374-0.015-3.556-0.044l0.175 0.003h-84.634c0.009 0.739 0.015 1.612 0.015 2.486 0 58.806-24.122 111.978-63.010 150.161l-0.032 0.031c-37.931 37.225-89.958 60.202-147.351 60.202-2.197 0-4.387-0.034-6.568-0.101l0.319 0.008c-57.73-0.959-109.61-25.231-146.781-63.783l-0.061-0.064c-36.115-37.442-58.364-88.469-58.364-144.693 0-1.566 0.017-3.127 0.052-4.685l-0.004 0.232c-33.331 0-65.485 0.563-97.587 0-74.054-1.596-133.993-59.878-138.223-133.099l-0.017-0.379c-2.611-43.11-5.632-86.17-8.141-129.28-5.12-90.010-13.056-179.968-14.848-270.029-0.052-1.98-0.082-4.31-0.082-6.648 0-74.031 29.679-141.131 77.789-190.049l-0.037 0.037c49.21-50.045 117.642-81.057 193.316-81.057 0.689 0 1.378 0.003 2.067 0.008l-0.106-0.001c127.386-0.717 254.771 0 382.157 0.41 0.95-0.013 2.072-0.020 3.195-0.020 45.019 0 87.334 11.579 124.129 31.922l-1.321-0.67c90.56 45.896 151.549 138.295 151.549 244.939 0 6.432-0.222 12.812-0.658 19.133l0.047-0.853zM445.44 852.89c20.691 15.244 46.686 24.397 74.819 24.397 24.438 0 47.262-6.906 66.629-18.874l-0.545 0.314c37.282-19.582 62.275-58.034 62.275-102.323 0-3.036-0.117-6.045-0.348-9.022l0.025 0.395h-254.874c-0.292 3.037-0.458 6.567-0.458 10.135 0 39.837 20.746 74.828 52.024 94.759l0.454 0.27zM730.88 574.413c-0.771-24.728-6.617-47.907-16.524-68.786l0.448 1.048c-7.176-15.346-15.481-28.569-25.179-40.624l0.296 0.381c-15.218-18.948-33.178-34.919-53.431-47.558l-0.892-0.519c-5.991-3.787-13.14-7.712-20.523-11.224l-1.289-0.552q-7.526-3.533-15.36-6.451-3.942-1.485-7.936-2.765-8.038-2.611-16.282-4.608c-17.408-4.198-35.43-5.786-53.197-8.55-45.975 0.566-88.468 14.998-123.622 39.295l0.742-0.485q-7.424 5.12-14.387 10.854t-13.363 11.981c-12.57 12.282-23.522 26.134-32.562 41.262l-0.513 0.927c-11.773 19.639-20.394 42.604-24.47 67.106l-0.157 1.144c-1.019 6.284-1.601 13.527-1.601 20.906 0 0.678 0.005 1.355 0.015 2.031l-0.001-0.102c0.003 7.426 1.644 14.468 4.582 20.785l-0.127-0.305c2.784 6.001 6.794 11.012 11.74 14.884l0.088 0.066c1.875 1.451 3.99 2.78 6.23 3.894l0.221 0.099c4.483 2.212 9.727 3.618 15.268 3.888l0.092 0.004c0.88 0.065 1.906 0.102 2.94 0.102 6.162 0 12.016-1.319 17.295-3.691l-0.267 0.107c3.727-1.703 6.934-3.812 9.767-6.332l-0.039 0.034c8.005-7.403 13.32-17.613 14.374-29.057l0.013-0.178c2.185-34.254 18.229-64.378 42.531-85.107l0.17-0.141c4.563-3.58 9.687-6.971 15.076-9.941l0.591-0.299c11.123-6.196 24.006-11.201 37.601-14.345l1.004-0.195c9.52-2.315 20.45-3.643 31.691-3.643 17.488 0 34.225 3.214 49.653 9.083l-0.959-0.32c5.566 2.072 10.090 4.089 14.473 6.341l-0.751-0.351c7.92 4.047 14.731 8.453 21.046 13.458l-0.258-0.198q3.84 3.021 7.424 6.4c4.72 4.427 9.002 9.196 12.852 14.309l0.204 0.283q2.918 3.942 5.53 8.141c6.581 11.077 11.668 23.945 14.549 37.625l0.146 0.826c1.024 4.506 1.843 9.062 2.509 13.517 0.405 19.921 13.39 36.704 31.317 42.759l0.325 0.095c2.988 0.723 6.418 1.138 9.945 1.138 1.113 0 2.216-0.041 3.308-0.122l-0.146 0.009c5.917-0.33 11.402-1.882 16.304-4.407l-0.227 0.106c3.686-1.92 6.844-4.277 9.568-7.059l0.006-0.007c1.871-1.875 3.557-3.935 5.028-6.15l0.092-0.147c2.943-4.596 5.166-9.968 6.347-15.719l0.053-0.306c0.802-3.755 1.261-8.070 1.261-12.492 0-0.703-0.012-1.403-0.035-2.1l0.003 0.102z" />
<glyph unicode="&#xe933;" glyph-name="workplace" d="M917.976 453.58c-33.019-234.373-148.357-230.253-148.357-230.253s-64.8-15.366-110.764 134.751l-30.702 78.425s-24.233-62.305-32.431-83.073c-7.511-19.106-41.536-188.545-158.567-111.217-28.819 19.008-43.266 71.165-73.967 143.581-40.089 94.079-77.99 197.399-77.99 197.399h117.662l81.889-199.545s24.233 58.153 31.155 77.983c65.309 189.79 158.628 144.341 194.768 74.28 12.496-24.233 25.14-61.783 35.999-91.069 14.716-39.666 29.837-78.259 29.837-78.259 11.595 15.366 18.45 41.119 29.107 78.259 9.553 33.4 8.443 128.969-23.987 185.252-47.141 81.761-182.585 202.114-398.82 103.571 0 0-293.765-159.848-112.947-474.523 0 0 114.4-193.836 359.982-126.234v-115.957c-319.065-50.059-497.639 187.392-523.761 334.296-21.578 121.635-13.269 333.162 204.696 465.037 286.119 173.068 654.974-23.883 607.195-362.704z" />
<glyph unicode="&#xe938;" glyph-name="rss" d="M965.172-8.557c-56.062 0-182.462 1.275-182.462 1.275v27.268c-3.46 149.731-55.143 286.751-140.050 396.831l1.166-1.573c-141.95 188.857-331.292 290.509-568.038 297.647-4.892 0.345-9.418 1.068-13.802 2.151l0.552-0.115v184.504c3.759 0.058 8.194 0.092 12.638 0.092 240.536 0 458.32-97.414 616.052-254.942l-0.009 0.009c198.773-191.384 286.695-445.71 273.948-652.38zM478.435-6.264c-47.404 270.636-139.65 362.888-416.406 415.891v178.391c285.671 18.861 605.748-252.014 597.335-594.282zM182.064-8.808c-67.080 1.875-120.744 56.701-120.744 124.061 0 68.542 55.564 124.106 124.106 124.106s124.106-55.564 124.106-124.106c0-1.329-0.021-2.654-0.062-3.974l0.005 0.193c-3.881-67.23-59.348-120.28-127.206-120.28-0.072 0-0.144 0-0.217 0h0.011z" />
<glyph unicode="&#xe939;" glyph-name="onsite-upload" horiz-adv-x="1135" d="M952.638 228.138v0c-25.839 16.429-56.458 35.908-87.619 55.812-13.235 8.448-26.594 17.020-39.52 25.303-34.493 22.109-70.16 44.974-105.511 67.028-7.298 4.549-16.107 7.344-25.549 7.602l-0.070 0.002c-66.554 0.33-132.442 0.33-196.153 0.33h-7.246c-37.439 0-76.156 0-114.227 0.055-0.756-0.019-1.646-0.030-2.539-0.030-22.965 0-44.254 7.177-61.746 19.41l0.349-0.231c-17.059 12.709-29.405 30.913-34.45 51.956l-0.126 0.621c-2.060 8.166-3.242 17.541-3.242 27.192 0 0.099 0 0.198 0 0.297v-0.015c-0.33 106.253-0.337 214.017-0.034 320.319-0.012 0.594-0.019 1.293-0.019 1.994 0 23.393 7.844 44.954 21.045 62.195l-0.181-0.246c13.718 17.013 33.028 29.033 55.103 33.273l0.585 0.094c6.313 1.112 13.582 1.748 21.001 1.751h0.003c1.332 0 2.679 0 4.004-0.062h32.714c48.545 0 97.86-0.048 145.561-0.103h2.308c47.975-0.048 97.578-0.096 146.399-0.096 108.272 0 191.524 0.24 269.926 0.783h0.824c0.561 0.011 1.223 0.017 1.886 0.017 28.162 0 53.677-11.335 72.232-29.691l-0.009 0.009c17.569-18.29 28.389-43.179 28.389-70.594 0-1.195-0.021-2.386-0.061-3.571l0.005 0.172c-1.683-113.403-1.655-214.704 0.089-309.693 0.061-1.353 0.096-2.939 0.096-4.534 0-28.483-11.124-54.368-29.265-73.547l0.047 0.050c-16.726-17.030-39.995-27.585-65.73-27.585-0.2 0-0.401 0.001-0.601 0.002h0.031c-2.287 0-4.622 0.082-6.93 0.24h-1.93c-6.573 0-13.235-0.316-19.808-0.948v-155.561zM679.12 845.896c-2.157-3.922-4.21-7.459-6.024-10.577-2.954-4.713-5.936-10.279-8.555-16.045l-0.374-0.92c-13.888-33.394-27.315-67.028-38.614-95.532-2.465-8.113-9.733-13.975-18.418-14.306l-0.037-0.001c-30.791-2.521-54.342-4.773-76.355-7.315-11.264-1.298-22.666-3.235-33.655-5.11-4.931-0.838-10.028-1.71-15.062-2.514l-1.236-5.817c5.907-7.505 11.789-14.184 18.012-20.527l-0.038 0.039c22.082-20.337 44.857-40.688 66.884-60.366l7.796-6.964c5.169-4.043 8.461-10.28 8.461-17.286 0-2.221-0.331-4.366-0.946-6.386l0.041 0.155c-7.397-32.453-14.424-65.503-20.955-98.217-1.135-6.206-1.944-13.561-2.249-21.046l-0.010-0.322c-0.268-4.183-0.543-8.503-0.975-13.366 4.066 1.841 7.768 3.434 11.031 4.808 6.378 2.478 11.755 5.102 16.882 8.107l-0.549-0.297 7.912 4.89h0.041c22.109 13.668 44.974 27.796 66.589 42.961 6.097 5.336 14.133 8.59 22.93 8.59 8.577 0 16.432-3.094 22.508-8.228l-0.052 0.043c20.399-14.108 42.075-27.096 63.044-39.665l0.076-0.048q6.010-3.599 12.013-7.212c4.558-2.637 9.964-5.244 15.566-7.462l0.856-0.299c3.29-1.374 7.013-2.94 11.127-4.808-0.433 4.643-0.687 8.764-0.968 12.741-0.305 7.46-1.126 14.5-2.437 21.365l0.143-0.898c-6.868 32.281-14.424 64.343-21.718 95.339-0.855 2.577-1.348 5.543-1.348 8.624 0 8.878 4.095 16.8 10.499 21.98l0.053 0.042c25.914 22.83 51.279 46.663 73.017 67.214 4.091 4.109 7.858 8.547 11.256 13.269l0.221 0.323c1.964 2.589 4.004 5.268 6.312 8.125-2.871 0.92-5.399 1.854-7.631 2.679-3.249 1.428-7.030 2.549-10.975 3.179l-0.268 0.035-2.239 0.234c-33.758 3.503-68.683 7.116-103.066 9.65-0.033 0-0.072 0-0.112 0-11.429 0-21.096 7.545-24.292 17.925l-0.048 0.18c-12.645 31.436-25.791 63.031-39.088 93.918-2.819 5.946-5.776 11.003-9.107 15.779l0.233-0.352c-1.82 2.871-3.929 6.099-6.099 9.691zM682.767 328.044q-150.932-0.687-301.877-0.041c-0.783-0.012-1.708-0.018-2.634-0.018-13.924 0-27.495 1.508-40.56 4.369l1.249-0.229c-67.838 15.202-117.773 74.909-117.773 146.28 0 0.764 0.006 1.526 0.017 2.288l-0.001-0.115c-0.453 64.83-0.089 129.688-0.089 196.572h0.048c-23.964 0-46.375 0.268-68.78-0.055-0.312 0.004-0.68 0.006-1.049 0.006-51.795 0-93.849-41.702-94.42-93.361v-2.719q-0.446-135.059 0-270.097c-0.018-0.681-0.028-1.483-0.028-2.288 0-50.705 40.463-91.959 90.86-93.235l0.118-0.002h3.146c9.101-0.227 18.215 0 29.204 0v-161.845c6.182 4.691 10.021 7.555 13.737 10.536 59.363 47.295 118.499 94.817 178.254 141.611 6.838 5.163 15.403 8.376 24.704 8.68l0.070 0.002c76.348 0.687 152.704 0.206 229.052 0.453 53.326 0.172 92.139 32.281 99.591 81.864 0.549 3.654 0.749 9.87-1.174 10.989-13.276 7.782-23.778 20.44-41.663 20.358z" />
<glyph unicode="&#xe93a;" glyph-name="giphy" horiz-adv-x="796" d="M0-64v1024h569.179v-113.828h113.828v-113.828h113.387v-796.343zM682.978 49.829v569.135h-227.672v227.23h-341.463v-796.343z" />
<glyph unicode="&#xf002;" glyph-name="search" d="M1010 74.6c18.6-18.799 18.6-49.199-0.199-68l-56.602-56.6c-18.6-18.801-49-18.801-67.799 0l-199.4 199.4c-9 9-14 21.199-14 34v32.6c-70.6-55.199-159.4-88-256-88-229.8 0-416 186.199-416 416s186.199 416 416 416 416-186.199 416-416c0-96.6-32.801-185.4-88-256h32.6c12.801 0 25-5 34-14zM416 288c141.6 0 256 114.6 256 256 0 141.6-114.6 256-256 256-141.6 0-256-114.6-256-256 0-141.6 114.6-256 256-256z" />
<glyph unicode="&#xf004;" glyph-name="heart" d="M924.6 834.8c125.6-107.201 132.201-299.602 19.6-415.8l-387-399.6c-25-25.801-65.6-25.801-90.6 0l-387 399.6c-112.4 116.199-105.799 308.6 19.801 415.8 109.6 93.398 272.798 76.6 373.2-27.201l39.4-40.6 39.4 40.6c100.6 103.801 263.6 120.6 373.2 27.201z" />
<glyph unicode="&#xf005;" glyph-name="star" horiz-adv-x="1152" d="M518.6 924.4c23.6 47.799 91.4 47.199 114.801 0l130.6-264.8 292.2-42.6c52.4-7.6 73.4-72.199 35.4-109.199l-211.4-206 50-291c9-52.602-46.398-91.801-92.799-67.4l-261.4 137.4-261.4-137.4c-46.4-24.6-101.799 14.799-92.799 67.4l50 291-211.4 206c-38 37-17 101.6 35.4 109.199l292.2 42.6z" />
<glyph unicode="&#xf007;" glyph-name="user" horiz-adv-x="896" d="M448 448c-141.4 0-256 114.6-256 256s114.6 256 256 256 256-114.6 256-256-114.6-256-256-256zM627.2 384c148.4 0 268.8-120.4 268.8-268.8v-83.199c0-53-43-96-96-96h-704c-53 0-96 43-96 96v83.199c0 148.4 120.4 268.8 268.8 268.8h33.398c44.602-20.4 93.801-32 145.801-32s101.4 11.6 145.801 32h33.398z" />
<glyph unicode="&#xf009;" glyph-name="th-large" d="M592 896h384c26.51 0 48-21.49 48-48v-320c0-26.51-21.49-48-48-48h-384c-26.51 0-48 21.49-48 48v320c0 26.51 21.49 48 48 48zM432 896c26.51 0 48-21.49 48-48v-320c0-26.51-21.49-48-48-48h-384c-26.51 0-48 21.49-48 48v320c0 26.51 21.49 48 48 48h384zM0 368c0 26.51 21.49 48 48 48h384c26.51 0 48-21.49 48-48v-320c0-26.51-21.49-48-48-48h-384c-26.51 0-48 21.49-48 48v320zM592 0c-26.51 0-48 21.49-48 48v320c0 26.51 21.49 48 48 48h384c26.51 0 48-21.49 48-48v-320c0-26.51-21.49-48-48-48h-384z" />
<glyph unicode="&#xf00a;" glyph-name="th" d="M298.666 848v-160c0-26.51-21.49-48-48-48h-202.666c-26.51 0-48 21.49-48 48v160c0 26.51 21.49 48 48 48h202.666c26.51 0 48-21.49 48-48zM661.334 368c0-26.51-21.49-48-48.002-48h-202.666c-26.51 0-48 21.49-48 48v160c0 26.51 21.49 48 48 48h202.668c26.51 0 48-21.49 48-48v-160zM725.334 848c0 26.51 21.49 48 48 48h202.666c26.51 0 48-21.49 48-48v-160c0-26.51-21.49-48-48-48h-202.666c-26.51 0-48 21.49-48 48v160zM661.334 688c0-26.51-21.49-48-48.002-48h-202.666c-26.51 0-48 21.49-48 48v160c0 26.51 21.49 48 48 48h202.668c26.51 0 48-21.49 48-48v-160zM250.666 576c26.51 0 48-21.49 48-48v-160c0-26.51-21.49-48-48-48h-202.666c-26.51 0-48 21.49-48 48v160c0 26.51 21.49 48 48 48h202.666zM0 208c0 26.51 21.49 48 48 48h202.666c26.51 0 48-21.49 48-48v-160c0-26.51-21.49-48-48-48h-202.666c-26.51 0-48 21.49-48 48v160zM773.334 320c-26.51 0-48 21.49-48 48v160c0 26.51 21.49 48 48 48h202.666c26.51 0 48-21.49 48-48v-160c0-26.51-21.49-48-48-48h-202.666zM773.334 0c-26.51 0-48 21.49-48 48v160c0 26.51 21.49 48 48 48h202.666c26.51 0 48-21.49 48-48v-160c0-26.51-21.49-48-48-48h-202.666zM362.666 208c0 26.51 21.49 48 48 48h202.666c26.51 0 48-21.49 48-48v-160c0-26.51-21.49-48-48-48h-202.666c-26.51 0-48 21.49-48 48v160z" />
<glyph unicode="&#xf00b;" glyph-name="th-list" d="M298.666 528v-160c0-26.51-21.49-48-48-48h-202.666c-26.51 0-48 21.49-48 48v160c0 26.51 21.49 48 48 48h202.666c26.51 0 48-21.49 48-48zM0 208c0 26.51 21.49 48 48 48h202.666c26.51 0 48-21.49 48-48v-160c0-26.51-21.49-48-48-48h-202.666c-26.51 0-48 21.49-48 48v160zM250.666 896c26.51 0 48-21.49 48-48v-160c0-26.51-21.49-48-48-48h-202.666c-26.51 0-48 21.49-48 48v160c0 26.51 21.49 48 48 48h202.666zM410.666 0c-26.51 0-48 21.49-48 48v160c0 26.51 21.49 48 48 48h565.334c26.51 0 48-21.49 48-48v-160c0-26.51-21.49-48-48-48h-565.334zM362.666 848c0 26.51 21.49 48 48 48h565.334c26.51 0 48-21.49 48-48v-160c0-26.51-21.49-48-48-48h-565.334c-26.51 0-48 21.49-48 48v160zM410.666 320c-26.51 0-48 21.49-48 48v160c0 26.51 21.49 48 48 48h565.334c26.51 0 48-21.49 48-48v-160c0-26.51-21.49-48-48-48h-565.334z" />
<glyph unicode="&#xf00c;" glyph-name="check" d="M347.796 81.191l-332.8 332.8c-19.994 19.994-19.994 52.412 0 72.408l72.406 72.408c19.994 19.996 52.414 19.996 72.408 0l224.19-224.19 480.19 480.19c19.994 19.994 52.414 19.994 72.408 0l72.406-72.408c19.994-19.994 19.994-52.412 0-72.408l-588.8-588.802c-19.996-19.994-52.414-19.994-72.406 0.002z" />
<glyph unicode="&#xf00d;" glyph-name="times" horiz-adv-x="704" d="M485.44 448l200.14-200.14c24.561-24.58 24.561-64.398 0-88.959l-44.48-44.48c-24.561-24.561-64.4-24.561-88.959 0l-200.14 200.14-200.14-200.14c-24.559-24.561-64.398-24.561-88.959 0l-44.48 44.48c-24.561 24.58-24.561 64.4 0 88.959l200.14 200.14-200.14 200.14c-24.561 24.58-24.561 64.398 0 88.959l44.48 44.48c24.58 24.561 64.4 24.561 88.959 0l200.14-200.14 200.14 200.14c24.58 24.561 64.398 24.561 88.959 0l44.48-44.48c24.561-24.58 24.561-64.4 0-88.959z" />
<glyph unicode="&#xf00e;" glyph-name="search-plus" d="M608 576v-64c0-13.199-10.801-24-24-24h-112v-112c0-13.199-10.801-24-24-24h-64c-13.199 0-24 10.801-24 24v112h-112c-13.199 0-24 10.801-24 24v64c0 13.199 10.801 24 24 24h112v112c0 13.199 10.801 24 24 24h64c13.199 0 24-10.801 24-24v-112h112c13.199 0 24-10.801 24-24zM1010 6.6l-56.6-56.6c-18.801-18.801-49.201-18.801-67.801 0l-199.6 199.4c-9 9-14 21.199-14 34v32.6c-70.6-55.199-159.4-88-256-88-229.8 0-416 186.199-416 416s186.199 416 416 416 416-186.199 416-416c0-96.6-32.801-185.4-88-256h32.6c12.801 0 25-5 34-14l199.4-199.4c18.6-18.799 18.6-49.199 0-68zM688 544c0 150.4-121.6 272-272 272s-272-121.6-272-272 121.6-272 272-272 272 121.6 272 272z" />
<glyph unicode="&#xf010;" glyph-name="search-minus" d="M608 576v-64c0-13.199-10.801-24-24-24h-336c-13.199 0-24 10.801-24 24v64c0 13.199 10.801 24 24 24h336c13.199 0 24-10.801 24-24zM1010 6.6l-56.6-56.6c-18.801-18.801-49.201-18.801-67.801 0l-199.6 199.4c-9 9-14 21.199-14 34v32.6c-70.6-55.199-159.4-88-256-88-229.8 0-416 186.199-416 416s186.199 416 416 416 416-186.199 416-416c0-96.6-32.801-185.4-88-256h32.6c12.801 0 25-5 34-14l199.4-199.4c18.6-18.799 18.6-49.199 0-68zM688 544c0 150.4-121.6 272-272 272s-272-121.6-272-272 121.6-272 272-272 272 121.6 272 272z" />
<glyph unicode="&#xf013;" glyph-name="cog" d="M974.8 328.6c9.799-5.6 14.199-17.199 11.199-28.199-22.199-71.4-60-135.801-109.4-189.201-7.6-8.398-19.799-10.199-29.6-4.6l-85.199 49.201c-36-30.602-77.201-54.4-121.602-70.201v-98.4c0-11.199-7.799-21-18.799-23.398-69.801-15.602-145-16.4-218.4 0-11 2.398-18.801 12.199-18.801 23.398v98.4c-44.6 15.6-85.799 39.4-121.6 70.201l-85.199-49.201c-9.6-5.6-22-3.6-29.6 4.6-49.4 53.602-87.201 118-109.4 189.201-3.201 10.799 1.199 22.4 11 28l85.199 49.199c-8.6 46.4-8.6 94 0 140.4l-85.199 49.199c-9.801 5.602-14.4 17.201-11 28 22.199 71.4 60 135.801 109.4 189.201 7.6 8.4 19.799 10.199 29.6 4.6l85-49.199c36 30.6 77.199 54.398 121.6 70.199v98.4c0 11.199 7.801 21 18.801 23.4 69.799 15.6 145 16.398 218.398 0 11-2.4 18.801-12.201 18.801-23.4v-98.201c44.6-15.6 85.801-39.398 121.6-70.199l85.201 49.199c9.6 5.602 22 3.602 29.6-4.6 49.4-53.6 87.199-118 109.4-189.199 3.199-10.801-1.201-22.4-11-28l-85.201-49.201c8.6-46.398 8.6-94 0-140.398zM512 288c88.199 0 160 71.801 160 160s-71.801 160-160 160-160-71.801-160-160 71.801-160 160-160z" />
<glyph unicode="&#xf015;" glyph-name="home" horiz-adv-x="1152" d="M560.74 663.48c3.697 2.98 10.551 5.398 15.299 5.398 4.75 0 11.604-2.418 15.301-5.398l368.66-303.48v-328c0-17.664-14.336-32-32-32l-224.042 0.619c-17.664 0-32 14.336-32 32 0 0.029 0 0.074 0.002 0.102v191.279c0 17.664-14.338 32-32 32h-128c-17.664 0-32-14.336-32-32v-191.42c0-17.576-14.266-31.912-31.842-32l-224.12-0.58c-17.664 0-32 14.336-32 32v327.78zM1143.2 457.060c4.891-3.977 8.859-12.318 8.859-18.621 0-4.746-2.445-11.572-5.459-15.24l-51-62c-3.973-4.807-12.262-8.709-18.498-8.709-4.771 0-11.627 2.469-15.301 5.51l-470.46 387.48c-3.697 2.98-10.551 5.398-15.301 5.398-4.748 0-11.602-2.418-15.299-5.398l-470.44-387.48c-3.674-3.033-10.521-5.496-15.285-5.496-6.256 0-14.561 3.924-18.535 8.756l-51 62c-3.041 3.676-5.51 10.531-5.51 15.301 0 6.238 3.902 14.525 8.709 18.5l506.26 416.94c14.672 12.072 42 21.871 61 21.871 19.002 0 46.328-9.799 61-21.871l179.061-147.32v145.221c0 13.248 10.752 24 24 24h112c13.248 0 24-10.752 24-24v-277.020z" />
<glyph unicode="&#xf019;" glyph-name="download" d="M432 960h160c26.6 0 48-21.4 48-48v-336h175.4c35.6 0 53.4-43 28.199-68.199l-304.2-304.4c-15-15-39.6-15-54.6 0l-304.602 304.4c-25.199 25.199-7.398 68.199 28.201 68.199h175.6v336c0 26.6 21.4 48 48 48zM1024 208v-224c0-26.6-21.4-48-48-48h-928c-26.6 0-48 21.4-48 48v224c0 26.6 21.4 48 48 48h293.4l98-98c40.199-40.199 105-40.199 145.199 0l98 98h293.4c26.6 0 48-21.4 48-48zM776 32c0 22-18 40-40 40s-40-18-40-40 18-40 40-40 40 18 40 40zM904 32c0 22-18 40-40 40s-40-18-40-40 18-40 40-40 40 18 40 40z" />
<glyph unicode="&#xf01e;" glyph-name="redo" d="M1000.66 960c13.248 0 24-10.752 24-24v-400.68c0-13.248-10.752-24-24-24h-400.66c-13.248 0-24 10.752-24 24v94.848c0 13.248 10.752 24 24 24 0.314 0 0.826-0.014 1.141-0.027l203.058-9.74c-57.744 85.922-188.629 155.656-292.152 155.656-194.303 0-352-157.697-352-352 0-194.305 157.697-352 352-352 73.309 0 177.475 39.301 232.514 87.723 3.744 3.273 10.818 5.928 15.791 5.928 5.486 0 13.088-3.148 16.969-7.027l68-68c3.883-3.881 7.035-11.486 7.035-16.977 0-5.922-3.582-13.934-7.996-17.883-77.941-70.557-226.528-127.82-331.662-127.82h-0.697c-273.8 0-495.8 221.86-496 495.62-0.199 273.32 222.68 496.38 496 496.38h0.545c126.449 0 295.478-78.248 377.294-174.66l-8 165.52c-0.016 0.314-0.027 0.826-0.027 1.141 0 13.248 10.752 24 24 24h94.848z" />
<glyph unicode="&#xf021;" glyph-name="sync" d="M881.3 934.86c-0.016 0.314-0.027 0.826-0.027 1.141 0 13.24 10.746 23.992 23.986 24h94.74c13.248 0 24-10.752 24-24v-400.7c0-13.248-10.752-24-24-24h-400.44c-13.248 0-24 10.752-24 24v94.846c0 13.248 10.752 24 24 24 0.314 0 0.824-0.012 1.139-0.027l202.92-9.719c-57.717 85.85-188.52 155.525-291.968 155.525-152.967 0-306.198-120.693-342.032-269.406-2.395-10.211-12.85-18.508-23.34-18.52h-98.1c-13.248 0-24 10.752-24 24 0 1.213 0.18 3.166 0.4 4.359 43.24 229.8 244.88 403.64 487.080 403.64h0.568c126.406 0 295.334-78.256 377.072-174.68zM511.66 96c152.994 0 306.288 120.727 342.060 269.48 2.395 10.211 12.85 18.508 23.34 18.52h98.1c13.248 0 24-10.752 24-24 0-1.213-0.18-3.166-0.4-4.359-43.24-229.8-244.878-403.64-487.1-403.64h-0.469c-126.258 0-295.060 78.104-376.792 174.34l8.299-165.141c0.018-0.33 0.031-0.867 0.031-1.199 0-13.248-10.752-24-24-24h-94.73c-13.248 0-24 10.752-24 24v400.66c0 13.248 10.752 24 24 24h400.4c13.248 0 24-10.752 24-24v-94.828c0-13.248-10.752-24-24-24-0.314 0-0.826 0.014-1.141 0.027l-203.6 9.74c57.6-85.891 188.281-155.6 291.7-155.6h0.301z" />
<glyph unicode="&#xf024;" glyph-name="flag" d="M699.13 762.434c80.99 0 165.223 31.812 233.898 63.709 42.434 19.707 90.971-11.246 90.971-58.033v-486.2c0-21.053-10.32-40.814-27.686-52.717-71.676-49.127-148.672-81.715-245.010-81.715-134.746 0-223.258 69.566-330.436 69.566-101.705 0-172.248-20.117-228.87-44.244v-188.801c0-26.51-21.49-48-48-48h-32c-26.51 0-48 21.49-48 48v772.11c-29.006 20.24-48 53.838-48 91.891 0 63.408 52.689 114.508 116.676 111.904 56.936-2.316 103.559-47.934 107.102-104.807 0.125-1.961 0.227-5.146 0.227-7.111 0-11.422-3.314-29.348-7.398-40.012 41.473 15.258 86.18 24.025 136.090 24.025 134.746 0 223.26-69.566 330.436-69.566z" />
<glyph unicode="&#xf026;" glyph-name="volume-off" horiz-adv-x="512" d="M430 818c30 30 82 8.939 82-34v-672c0-42.939-52-64-82-34l-177.881 178h-204.12c-26.496 0-48 21.504-48 48v288c0 26.496 21.504 48 48 48h204z" />
<glyph unicode="&#xf027;" glyph-name="volume-down" horiz-adv-x="768" d="M430.060 815.92c30.020 30 81.939 8.98 81.939-33.959v-671.922c0-42.879-51.881-64-81.939-33.939l-177.941 177.9h-204.12c-26.52 0-48 21.5-48 48v288c0 26.52 21.48 48 48 48h204.12zM676.46 599.76c56.479-31.1 91.559-89.98 91.559-153.74s-35.080-122.66-91.539-153.76c-23.121-12.699-52.361-4.42-65.221 18.9-12.779 23.221-4.32 52.4 18.9 65.221 25.801 14.18 41.84 40.859 41.84 69.619s-16.039 55.439-41.859 69.641c-23.221 12.82-31.68 42-18.9 65.219 12.84 23.221 42.061 31.561 65.221 18.9z" />
<glyph unicode="&#xf028;" glyph-name="volume-up" horiz-adv-x="1152" d="M430.060 817.9c30.020 30.020 81.939 8.98 81.939-33.939v-671.922c0-42.879-51.881-64-81.939-33.939l-177.941 177.9h-204.12c-26.52 0-48 21.5-48 48v288c0 26.52 21.48 48 48 48h204.12zM896.7 920.060c159.84-104.92 255.3-281.4 255.3-472.060s-95.461-367.16-255.3-472.080c-23.16-15.221-52.939-7.52-67.020 13.9-14.68 22.32-8.439 52.359 13.9 67 132.539 86.98 211.64 233.2 211.64 391.16s-79.102 304.18-211.64 391.16c-22.34 14.66-28.58 44.68-13.9 67.020 14.66 22.379 44.68 28.561 67.020 13.9zM960 448c0-127.080-64.119-243.88-171.539-312.48-24-15.359-53.221-5.799-66.24 14.92-14.182 22.58-7.561 52.441 14.818 66.721 79.5 50.779 126.961 137.061 126.961 230.84s-47.461 180.061-126.961 230.84c-22.379 14.301-29 44.16-14.818 66.721 14.18 22.559 43.859 29.199 66.24 14.92 107.42-68.6 171.539-185.42 171.539-312.48zM676.46 601.74c56.479-31.080 91.559-89.961 91.559-153.721s-35.080-122.66-91.539-153.76c-23.121-12.699-52.361-4.42-65.221 18.9-12.779 23.221-4.32 52.4 18.9 65.221 25.801 14.18 41.84 40.859 41.84 69.619 0 28.74-16.039 55.439-41.859 69.619-23.221 12.82-31.68 42-18.9 65.221 12.84 23.221 42.061 31.561 65.221 18.9z" />
<glyph unicode="&#xf030;" glyph-name="camera-fill" d="M1024 672v-576c0-53-43-96-96-96h-832c-53 0-96 43-96 96v576c0 53 43 96 96 96h176l24.6 65.801c14 37.398 49.801 62.199 89.801 62.199h251c40 0 75.799-24.801 89.799-62.199l24.801-65.801h176c53 0 96-43 96-96zM752 384c0 132.4-107.6 240-240 240s-240-107.6-240-240 107.6-240 240-240 240 107.6 240 240zM688 384c0-97-79-176-176-176s-176 79-176 176 79 176 176 176 176-79 176-176z" />
<glyph unicode="&#xf032;" glyph-name="bold" horiz-adv-x="768" d="M666.98 484c68.879-55.080 111.139-142.301 101.66-239.2-13.721-141.301-140.4-244.8-282-244.8h-418.64c-17.664 0-32 14.336-32 32v96c0 17.664 14.336 32 32 32h63.74v576h-63.74c-17.664 0-32 14.336-32 32v96c0 17.664 14.336 32 32 32h398.84c149.16 0 268.9-128.98 254.14-281.58-4.027-40.5-28.219-98.928-54-130.42zM291.32 736v-192h175.52c52.992 0 96 43.008 96 96s-43.008 96-96 96h-175.52zM466.84 160c61.824 0 112 50.176 112 112s-50.176 112-112 112h-175.52v-224h175.52z" />
<glyph unicode="&#xf03d;" glyph-name="video-alt" horiz-adv-x="1152" d="M672.4 832c52.799 0 95.6-42.801 95.6-95.6v-576.8c0-52.799-42.801-95.6-95.6-95.6h-576.8c-52.799 0-95.6 42.801-95.6 95.6v576.8c0 52.799 42.801 95.6 95.6 95.6h576.8zM1051.2 756.6c42.602 29.201 100.801-0.799 100.801-51.6v-513.8c0-51-58.4-80.799-100.801-51.6l-219.2 151v314.8z" />
<glyph unicode="&#xf044;" glyph-name="edit" horiz-adv-x="1152" d="M805.2 793.6l180.4-180.4c7.6-7.6 7.6-20 0-27.6l-436.798-436.798-185.602-20.602c-24.799-2.799-45.799 18.201-43 43l20.602 185.602 436.798 436.798c7.6 7.6 20 7.6 27.6 0zM1129.2 839.4c30.4-30.4 30.4-79.801 0-110.4l-70.799-70.801c-7.6-7.6-20-7.6-27.6 0l-180.4 180.4c-7.6 7.6-7.6 20 0 27.6l70.799 70.801c30.602 30.4 80 30.4 110.4 0zM768 267.6c0 6.4 2.6 12.4 7 17l80 80c15.199 15 41 4.4 41-17v-315.6c0-53-43-96-96-96h-704c-53 0-96 43-96 96v704c0 53 43 96 96 96h571.6c21.4 0 32.201-25.801 17-41l-80-80c-4.6-4.4-10.6-7-17-7h-459.6v-640h640v203.6z" />
<glyph unicode="&#xf048;" glyph-name="step-backward" horiz-adv-x="896" d="M128 24v848c0 13.199 10.801 24 24 24h96c13.199 0 24-10.801 24-24v-352.8l391 362c41.199 34.201 105 5.602 105-49.199v-768c0-54.801-63.801-83.4-105-49.199l-391 359.798v-350.6c0-13.199-10.801-24-24-24h-96c-13.199 0-24 10.801-24 24z" />
<glyph unicode="&#xf049;" glyph-name="fast-backward" d="M0 88v720c0 13.199 10.801 24 24 24h80c13.199 0 24-10.801 24-24v-303.8l343 313c41.199 34.201 105 5.602 105-49.199v-263.8l343 313c41.199 34.201 105 5.602 105-49.199v-640c0-54.801-63.801-83.4-105-49.199l-343 310.6v-261.4c0-54.801-63.801-83.4-105-49.199l-343 310.6v-301.4c0-13.199-10.801-24-24-24h-80c-13.199 0-24 10.801-24 24z" />
<glyph unicode="&#xf04a;" glyph-name="backward" d="M23 398.8c-30.6 25.6-30.6 72.799 0 98.398l384 320c41.199 34.4 105 5.602 105-49.199v-640c0-54.801-63.801-83.6-105-49.199zM535 398.8c-30.6 25.6-30.6 72.799 0 98.398l384 320c41.199 34.4 105 5.602 105-49.199v-640c0-54.801-63.801-83.6-105-49.199z" />
<glyph unicode="&#xf04b;" glyph-name="play-alt" horiz-adv-x="896" d="M848.8 530.6c63-37 62.799-128.199 0-165.199l-704-416c-63.4-37.6-144.801 7.6-144.801 82.6v832.2c0 83.602 87.6 116.4 144.801 82.602z" />
<glyph unicode="&#xf04c;" glyph-name="pause" horiz-adv-x="896" d="M288 2h-192c-53 0-96 43-96 96v704c0 53 43 96 96 96h192c53 0 96-43 96-96v-704c0-53-43-96-96-96zM896 98c0-53-43-96-96-96h-192c-53 0-96 43-96 96v704c0 53 43 96 96 96h192c53 0 96-43 96-96v-704z" />
<glyph unicode="&#xf04d;" glyph-name="stop" horiz-adv-x="896" d="M800 896c53 0 96-43 96-96v-704c0-53-43-96-96-96h-704c-53 0-96 43-96 96v704c0 53 43 96 96 96h704z" />
<glyph unicode="&#xf04e;" glyph-name="forward" d="M1001 497.2c30.6-25.6 30.6-72.799 0-98.398l-384-320c-41.199-34.4-105-5.602-105 49.199v640c0 54.801 63.801 83.4 105 49.199zM489 497.2c30.6-25.6 30.6-72.799 0-98.398l-384-320c-41.199-34.4-105-5.602-105 49.199v640c0 54.801 63.801 83.4 105 49.199z" />
<glyph unicode="&#xf050;" glyph-name="fast-forward" d="M1024 808v-720c0-13.199-10.801-24-24-24h-80c-13.199 0-24 10.801-24 24v303.8l-343-313c-41.199-34.4-105-5.602-105 49.199v263.8l-343-313c-41.199-34.4-105-5.602-105 49.199v640c0 54.801 63.801 83.4 105 49.199l343-310.798v261.6c0 54.801 63.801 83.4 105 49.199l343-310.798v301.6c0 13.199 10.801 24 24 24h80c13.199 0 24-10.801 24-24z" />
<glyph unicode="&#xf051;" glyph-name="step-forward" horiz-adv-x="896" d="M768 872v-848c0-13.199-10.801-24-24-24h-96c-13.199 0-24 10.801-24 24v352.8l-391-362c-41.199-34.201-105-5.602-105 49.199v768c0 54.801 63.801 83.4 105 49.199l391-359.798v350.6c0 13.199 10.801 24 24 24h96c13.199 0 24-10.801 24-24z" />
<glyph unicode="&#xf053;" glyph-name="chevron-left" horiz-adv-x="640" d="M69.039 481.94l388.702 388.68c18.74 18.74 49.141 18.74 67.879 0l45.342-45.34c18.719-18.719 18.738-49.039 0.078-67.799l-308.058-309.48 308.040-309.5c18.68-18.76 18.641-49.080-0.080-67.801l-45.34-45.34c-18.74-18.74-49.139-18.74-67.879 0l-388.682 388.702c-18.738 18.74-18.738 49.139 0 67.879z" />
<glyph unicode="&#xf054;" glyph-name="chevron-right" horiz-adv-x="640" d="M570.952 414.058l-388.688-388.688c-18.746-18.744-49.137-18.744-67.881 0l-45.334 45.334c-18.715 18.715-18.75 49.045-0.080 67.803l308.042 309.492-308.042 309.49c-18.67 18.758-18.635 49.088 0.080 67.803l45.334 45.334c18.746 18.744 49.137 18.744 67.881 0l388.686-388.688c18.746-18.744 18.746-49.135 0.002-67.881z" />
<glyph unicode="&#xf055;" glyph-name="plus-circle" d="M512 944c274 0 496-222 496-496s-222-496-496-496-496 222-496 496 222 496 496 496zM800 392v112c0 13.199-10.801 24-24 24h-184v184c0 13.199-10.801 24-24 24h-112c-13.199 0-24-10.801-24-24v-184h-184c-13.199 0-24-10.801-24-24v-112c0-13.199 10.801-24 24-24h184v-184c0-13.199 10.801-24 24-24h112c13.199 0 24 10.801 24 24v184h184c13.199 0 24 10.801 24 24z" />
<glyph unicode="&#xf056;" glyph-name="minus-circle" d="M512 944c274 0 496-222 496-496s-222-496-496-496-496 222-496 496 222 496 496 496zM248 368h528c13.199 0 24 10.801 24 24v112c0 13.199-10.801 24-24 24h-528c-13.199 0-24-10.801-24-24v-112c0-13.199 10.801-24 24-24z" />
<glyph unicode="&#xf057;" glyph-name="times-circle" d="M512 944c274 0 496-222 496-496s-222-496-496-496-496 222-496 496 222 496 496 496zM755.2 317.8l-131.199 130.199 131.4 130c9.4 9.4 9.4 24.6 0 34l-79.201 79.199c-9.398 9.4-24.6 9.4-34 0l-130.199-131.199-130 131.4c-9.4 9.4-24.6 9.4-34 0l-79.199-79.201c-9.4-9.398-9.4-24.6 0-34l131.199-130.199-131.199-130c-9.4-9.4-9.4-24.6 0-34l79-79.199c9.398-9.4 24.6-9.4 34 0l130.199 131.199 130-131.199c9.4-9.4 24.6-9.4 34 0l79.199 79c9.4 9.398 9.4 24.6 0 34z" />
<glyph unicode="&#xf058;" glyph-name="check-circle" d="M1008 448c0-273.934-222.066-496-496-496s-496 222.066-496 496 222.066 496 496 496 496-222.066 496-496zM454.628 185.371l368 368c12.494 12.496 12.494 32.76 0 45.256l-45.256 45.254c-12.494 12.498-32.758 12.498-45.256 0l-300.118-300.118-140.117 140.119c-12.496 12.496-32.76 12.496-45.256 0l-45.256-45.254c-12.494-12.496-12.494-32.76 0-45.256l208-208c12.498-12.496 32.76-12.496 45.258-0.002z" />
<glyph unicode="&#xf059;" glyph-name="question-circle" d="M1008 448c0-273.994-222.086-496-496-496s-496 222.006-496 496c0 273.834 222.086 496 496 496s496-222.166 496-496zM525.31 780c-108.994 0-178.51-45.914-233.098-127.516-7.072-10.572-4.707-24.83 5.43-32.516l69.396-52.621c10.41-7.895 25.242-6.016 33.33 4.244 35.729 45.316 60.227 71.594 114.607 71.594 40.857 0 91.395-26.295 91.395-65.916 0-29.951-24.725-45.334-65.066-67.951-47.049-26.375-109.305-59.201-109.305-141.318v-8c0-13.254 10.746-24 24-24h112c13.254 0 24 10.746 24 24v2.666c0 56.924 166.371 59.295 166.371 213.334 0 116.004-120.328 204-233.060 204zM512 284c-50.73 0-92-41.27-92-92s41.27-92 92-92 92 41.271 92 92c0 50.73-41.27 92-92 92z" />
<glyph unicode="&#xf05a;" glyph-name="info-circle" d="M512 944c273.914 0 496-222.166 496-496 0-273.994-222.086-496-496-496s-496 222.006-496 496c0 273.834 222.086 496 496 496zM512 724c-46.393 0-84-37.607-84-84s37.607-84 84-84 84 37.607 84 84-37.607 84-84 84zM624 216v48c0 13.254-10.746 24-24 24h-24v200c0 13.254-10.746 24-24 24h-128c-13.254 0-24-10.746-24-24v-48c0-13.254 10.746-24 24-24h24v-128h-24c-13.254 0-24-10.746-24-24v-48c0-13.254 10.746-24 24-24h176c13.254 0 24 10.746 24 24z" />
<glyph unicode="&#xf060;" glyph-name="arrow-left" horiz-adv-x="896" d="M515 69.801l-44.4-44.4c-18.799-18.801-49.199-18.801-67.799 0l-388.8 388.6c-18.801 18.801-18.801 49.199 0 67.801l388.8 388.798c18.799 18.801 49.199 18.801 67.799 0l44.4-44.4c19-19 18.6-50-0.801-68.6l-241-229.6h574.8c26.6 0 48-21.4 48-48v-64c0-26.6-21.4-48-48-48h-574.8l241-229.6c19.602-18.6 20-49.6 0.801-68.6z" />
<glyph unicode="&#xf061;" glyph-name="arrow-right" horiz-adv-x="896" d="M381 826.2l44.4 44.4c18.799 18.801 49.199 18.801 67.799 0l388.8-388.6c18.801-18.801 18.801-49.199 0-67.801l-388.8-388.798c-18.799-18.801-49.199-18.801-67.799 0l-44.4 44.4c-19 19-18.6 50 0.801 68.6l241 229.6h-574.8c-26.6 0-48 21.4-48 48v64c0 26.6 21.4 48 48 48h574.8l-241 229.6c-19.602 18.6-20 49.6-0.801 68.6z" />
<glyph unicode="&#xf062;" glyph-name="arrow-up" horiz-adv-x="896" d="M69.801 381l-44.4 44.4c-18.801 18.799-18.801 49.199 0 67.799l388.6 388.8c18.801 18.801 49.199 18.801 67.801 0l388.6-388.6c18.799-18.801 18.799-49.201 0-67.801l-44.4-44.4c-19-19-50-18.6-68.6 0.801l-229.4 240.8v-574.8c0-26.6-21.4-48-48-48h-64c-26.6 0-48 21.4-48 48v574.8l-229.6-241c-18.6-19.602-49.6-20-68.6-0.801z" />
<glyph unicode="&#xf063;" glyph-name="arrow-down" horiz-adv-x="896" d="M826.2 515l44.4-44.4c18.801-18.799 18.801-49.199 0-67.799l-388.6-388.8c-18.801-18.801-49.199-18.801-67.801 0l-388.798 388.8c-18.801 18.799-18.801 49.199 0 67.799l44.4 44.4c19 19 50 18.6 68.6-0.801l229.6-241v574.8c0 26.6 21.4 48 48 48h64c26.6 0 48-21.4 48-48v-574.8l229.6 241c18.6 19.602 49.6 20 68.6 0.801z" />
<glyph unicode="&#xf064;" glyph-name="share" d="M1007.382 580.328c22.172-19.15 22.141-53.531 0-72.656l-352.010-304c-30.773-26.578-79.373-5.072-79.373 36.328v175.83c-310.166-4.463-443.868-81.459-353.18-371.484 10.068-32.195-28.848-57.123-56.154-37.262-87.504 63.646-166.666 185.383-166.666 308.264 0 304.454 254.742 368.838 576 372.516v160.107c0 41.336 48.562 62.938 79.373 36.328z" />
<glyph unicode="&#xf065;" glyph-name="expand" horiz-adv-x="896" d="M0 600v248c0 26.6 21.4 48 48 48h248c13.199 0 24-10.801 24-24v-80c0-13.199-10.801-24-24-24h-168v-168c0-13.199-10.801-24-24-24h-80c-13.199 0-24 10.801-24 24zM576 872c0 13.199 10.801 24 24 24h248c26.6 0 48-21.4 48-48v-248c0-13.199-10.801-24-24-24h-80c-13.199 0-24 10.801-24 24v168h-168c-13.199 0-24 10.801-24 24v80zM872 320c13.199 0 24-10.801 24-24v-248c0-26.6-21.4-48-48-48h-248c-13.199 0-24 10.801-24 24v80c0 13.199 10.801 24 24 24h168v168c0 13.199 10.801 24 24 24h80zM320 24c0-13.199-10.801-24-24-24h-248c-26.6 0-48 21.4-48 48v248c0 13.199 10.801 24 24 24h80c13.199 0 24-10.801 24-24v-168h168c13.199 0 24-10.801 24-24v-80z" />
<glyph unicode="&#xf066;" glyph-name="compress" horiz-adv-x="896" d="M872 576h-248c-26.6 0-48 21.4-48 48v248c0 13.199 10.801 24 24 24h80c13.199 0 24-10.801 24-24v-168h168c13.199 0 24-10.801 24-24v-80c0-13.199-10.801-24-24-24zM320 624c0-26.6-21.4-48-48-48h-248c-13.199 0-24 10.801-24 24v80c0 13.199 10.801 24 24 24h168v168c0 13.199 10.801 24 24 24h80c13.199 0 24-10.801 24-24v-248zM320 24c0-13.199-10.801-24-24-24h-80c-13.199 0-24 10.801-24 24v168h-168c-13.199 0-24 10.801-24 24v80c0 13.199 10.801 24 24 24h248c26.6 0 48-21.4 48-48v-248zM704 24c0-13.199-10.801-24-24-24h-80c-13.199 0-24 10.801-24 24v248c0 26.6 21.4 48 48 48h248c13.199 0 24-10.801 24-24v-80c0-13.199-10.801-24-24-24h-168v-168z" />
<glyph unicode="&#xf067;" glyph-name="plus" horiz-adv-x="896" d="M832 544c35.34 0 64-28.66 64-64v-64c0-35.34-28.66-64-64-64h-288v-288c0-35.34-28.66-64-64-64h-64c-35.34 0-64 28.66-64 64v288h-288c-35.34 0-64 28.66-64 64v64c0 35.34 28.66 64 64 64h288v288c0 35.34 28.66 64 64 64h64c35.34 0 64-28.66 64-64v-288h288z" />
<glyph unicode="&#xf068;" glyph-name="minus" horiz-adv-x="896" d="M832 544c35.34 0 64-28.66 64-64v-64c0-35.34-28.66-64-64-64h-768c-35.34 0-64 28.66-64 64v64c0 35.34 28.66 64 64 64h768z" />
<glyph unicode="&#xf06a;" glyph-name="exclamation-circle" d="M1008 448c0-273.994-222.086-496-496-496s-496 222.006-496 496c0 273.834 222.086 496 496 496s496-222.166 496-496zM512 348c-50.811 0-92-41.189-92-92s41.189-92 92-92 92 41.189 92 92-41.189 92-92 92zM424.654 678.692l14.836-272c0.693-12.727 11.217-22.691 23.963-22.691h97.094c12.746 0 23.27 9.965 23.963 22.691l14.836 272c0.75 13.748-10.195 25.309-23.963 25.309h-126.768c-13.768 0-24.711-11.561-23.961-25.309z" />
<glyph unicode="&#xf06e;" glyph-name="eye" horiz-adv-x="1152" d="M1145.040 477.2c3.842-7.598 6.959-20.676 6.959-29.189s-3.117-21.592-6.959-29.189c-108.398-211.542-323.18-354.82-569.040-354.82s-460.58 143.18-569.040 354.8c-3.842 7.598-6.959 20.676-6.959 29.189s3.117 21.592 6.959 29.189c108.398 211.542 323.18 354.82 569.040 354.82s460.58-143.18 569.040-354.8zM576 160h0.141c158.898 0 287.86 128.961 287.86 287.86v0.141c0 158.977-129.023 288-288 288s-288-129.023-288-288 129.023-288 288-288zM576 640h0.451c105.74 0 191.561-85.818 191.561-191.559s-85.82-191.561-191.561-191.561c-105.742 0-191.561 85.818-191.561 191.561 0 14.096 2.996 36.574 6.689 50.178 13.967-10.277 39.379-18.619 56.721-18.619 52.826 0 95.699 42.873 95.699 95.699 0 17.342-8.342 42.754-18.619 56.721 13.688 3.984 36.365 7.381 50.619 7.58z" />
<glyph unicode="&#xf070;" glyph-name="eye-slash" horiz-adv-x="1280" d="M640 160c14.482 0.135 37.779 2.473 52 5.221l103.779-80.301c-50.039-12.92-101.959-20.92-155.779-20.92-245.86 0-460.58 143.18-569.040 354.8-3.842 7.598-6.959 20.676-6.959 29.189s3.117 21.592 6.959 29.189c20.479 40 45.859 76.58 73.439 111.18l209.798-162.139c11.301-148.801 134.102-266.22 285.8-266.22zM1267.64 43.801c6.826-5.305 12.367-16.625 12.367-25.271 0-6.055-3.014-14.848-6.729-19.629l-39.279-50.541c-5.305-6.824-16.623-12.365-25.268-12.365-6.063 0-14.867 3.023-19.652 6.746l-1176.72 909.458c-6.82 5.305-12.355 16.621-12.355 25.262 0 6.059 3.018 14.855 6.736 19.639l39.26 50.541c5.305 6.824 16.623 12.365 25.268 12.365 6.063 0 14.867-3.023 19.652-6.746l254.44-196.66c76.023 41.516 208.022 75.295 294.64 75.4 245.86 0 460.58-143.18 569.040-354.8 3.842-7.598 6.959-20.676 6.959-29.189s-3.117-21.592-6.959-29.189c-33.533-65.352-106.332-156.807-162.5-204.14zM900.2 327.8c17.221 36.641 27.801 76.939 27.801 120.199v0.16c0 158.887-128.953 287.84-287.84 287.84h-0.16c-56.939-0.043-138.609-29.709-182.301-66.221l147.221-113.779c1.453 5.428 2.832 14.387 3.080 20-0.031 17.258-8.373 42.533-18.619 56.42 14.359 4.193 38.156 7.596 53.115 7.596 104.615 0 189.52-84.904 189.52-189.52 0-0.689-0.006-1.807-0.016-2.496-0.225-16.869-4.885-43.498-10.4-59.439z" />
<glyph unicode="&#xf071;" glyph-name="exclamation-triangle" horiz-adv-x="1152" d="M1139.034 79.975c36.916-63.988-9.422-143.975-83.152-143.975h-959.774c-73.873 0-119.998 80.109-83.154 143.975l479.892 832.054c36.934 64.020 129.439 63.902 166.309 0zM576 252c-50.811 0-92-41.189-92-92s41.189-92 92-92 92 41.189 92 92-41.189 92-92 92zM488.654 582.692l14.836-272c0.693-12.727 11.217-22.691 23.963-22.691h97.094c12.746 0 23.27 9.965 23.963 22.691l14.836 272c0.75 13.748-10.195 25.309-23.963 25.309h-126.768c-13.768 0-24.711-11.561-23.961-25.309z" />
<glyph unicode="&#xf077;" glyph-name="chevron-up" horiz-adv-x="896" d="M481.942 698.952l388.688-388.686c18.744-18.746 18.744-49.137 0-67.881l-45.334-45.334c-18.715-18.715-49.045-18.75-67.803-0.080l-309.492 308.040-309.49-308.042c-18.758-18.67-49.088-18.635-67.803 0.080l-45.334 45.334c-18.744 18.746-18.744 49.137 0 67.881l388.688 388.686c18.744 18.746 49.135 18.746 67.881 0.002z" />
<glyph unicode="&#xf078;" glyph-name="chevron-down" horiz-adv-x="896" d="M414.058 197.049l-388.688 388.688c-18.744 18.746-18.744 49.137 0 67.881l45.334 45.334c18.715 18.715 49.045 18.75 67.803 0.080l309.492-308.042 309.49 308.042c18.758 18.67 49.088 18.635 67.803-0.080l45.334-45.334c18.744-18.746 18.744-49.137 0-67.881l-388.686-388.688c-18.746-18.744-49.137-18.744-67.883 0z" />
<glyph unicode="&#xf080;" glyph-name="chart-bar" d="M665.6 320c-12.799 0-25.6 12.801-25.6 25.6v268.8c0 12.799 12.801 25.6 25.6 25.6h76.801c12.799 0 25.6-12.801 25.6-25.6v-268.8c0-12.799-12.801-25.6-25.6-25.6h-76.801zM857.6 320c-12.799 0-25.6 12.801-25.6 25.6v460.8c0 12.799 12.801 25.6 25.6 25.6h76.801c12.799 0 25.6-12.801 25.6-25.6v-460.8c0-12.799-12.801-25.6-25.6-25.6h-76.801zM281.6 320c-12.799 0-25.6 12.801-25.6 25.6v140.801c0 12.799 12.801 25.6 25.6 25.6h76.801c12.799 0 25.6-12.801 25.6-25.6v-140.801c0-12.799-12.801-25.6-25.6-25.6h-76.801zM473.6 320c-12.799 0-25.6 12.801-25.6 25.6v396.8c0 12.799 12.801 25.6 25.6 25.6h76.801c12.799 0 25.6-12.801 25.6-25.6v-396.8c0-12.799-12.801-25.6-25.6-25.6h-76.801zM992 192c17.68 0 32-14.32 32-32v-64c0-17.68-14.32-32-32-32h-928c-35.34 0-64 28.66-64 64v672c0 17.68 14.32 32 32 32h64c17.68 0 32-14.32 32-32v-608h864z" />
<glyph unicode="&#xf081;" glyph-name="twitter-square" d="M800 895.997c53 0 96-43 96-96v-704c0-53-43-96-96-96h-704c-53 0-96 43-96 96v704c0 53 43 96 96 96h704zM702.2 578.397c25.602 18.6 48 41.799 65.801 68-23.6-10.201-49.199-17.6-75.6-20.4 27.199 16.199 47.799 41.801 57.6 72.199-25.199-15-53.6-26-83.199-31.6-24 25.6-58 41.4-95.801 41.4-80 0-146.6-72.199-128-161.199-108.801 5.6-205.8 57.6-270.4 137.199-11.4-19.4-17.799-41.801-17.799-66.199v-0.215c0-38.717 26.162-87.543 58.398-108.986-21.398 0.801-41.799 6.801-59.199 16.6v-1.6c0-63.799 45-116.6 105-128.799-20.801-5.4-39-5.4-59.199-2.4 16.6-52 65-89.801 122.6-91-45-35.201-101.4-56-162.801-56-10.799 0-21 0.4-31.6 1.6 58-37.199 127-58.801 201.4-58.801 241.2 0 373.2 199.801 373.2 373.202 0 5.6 0 11.4-0.4 17z" />
<glyph unicode="&#xf082;" glyph-name="facebook-square" d="M800 895.997c52.992 0 96-43.008 96-96v-704c0-52.992-43.008-96-96-96h-274.5v304.62h115.561l22 143.381h-137.561v93.1c0 39.221 19.221 77.461 80.84 77.461h62.541v122s-56.762 9.68-111.041 9.68c-113.34 0-187.34-68.66-187.34-192.961v-109.279h-126v-143.381h126v-304.62h-274.5c-52.992 0-96 43.008-96 96v704c0 52.992 43.008 96 96 96h704z" />
<glyph unicode="&#xf08c;" glyph-name="linkedin-square" d="M832 895.997c35.199 0 64-29 64-64.6v-766.8c0-35.6-28.801-64.6-64-64.6h-768.2c-35.201 0-63.801 29-63.801 64.6v766.8c0 35.6 28.6 64.6 63.801 64.6h768.2zM270.8 127.997h0.199v427.6h-133v-427.6h132.801zM204.4 613.997c42.6 0 77 34.4 77 77 0 42.4-34.6 77-77 77-42.6 0-77-34.6-77-77s34.4-77 77-77zM768.6 127.997v234.4c0 115.199-25 203.798-159.4 203.798-64.6 0-108-35.398-125.799-69h-1.801v58.4h-127.4v-427.6h132.801v211.6c0 55.801 10.6 109.801 79.801 109.801 68 0 69-63.801 69-113.4v-208h132.799z" />
<glyph unicode="&#xf095;" glyph-name="phone" d="M986.8 910.8c21.799-5 37.199-24.4 37.199-46.801 0-513-415.8-928-928-928-22.6 0-41.801 15.6-46.801 37.199l-48 208c-5.199 22.602 6.602 45.801 28 55.201l224 96c19.602 8.4 42.4 2.799 56-13.801l99.201-121.199c156.6 73.4 282.4 201 354.4 354.4l-121.201 99.199c-16.6 13.4-22.199 36.4-13.799 56l96 224c9.199 21.199 32.398 33 55 27.801z" />
<glyph unicode="&#xf099;" glyph-name="twitter" d="M918.74 656.565c0.65-9.096 0.65-18.195 0.65-27.291 0-277.44-211.166-597.116-597.118-597.116-118.904 0-229.36 34.438-322.274 94.211 16.895-1.947 33.137-2.598 50.68-2.598 98.109 0 188.426 33.137 260.548 89.664-92.264 1.951-169.584 62.377-196.225 145.545 12.996-1.949 25.99-3.248 39.637-3.248 18.842 0 37.686 2.6 55.227 7.146-96.162 19.494-168.285 103.959-168.285 205.968v2.598c27.938-15.594 60.428-25.34 94.861-26.637-56.527 37.686-93.561 102.010-93.561 174.781 0 38.984 10.393 74.721 28.588 105.908 103.309-127.35 258.6-210.516 432.728-219.614-3.248 15.594-5.197 31.836-5.197 48.080 0 115.654 93.564 209.868 209.868 209.868 60.428 0 115.004-25.34 153.342-66.273 47.43 9.096 92.91 26.639 133.197 50.68-15.596-48.732-48.732-89.666-92.264-115.654 42.234 4.547 83.168 16.244 120.852 32.486-28.584-41.582-64.322-78.617-105.256-108.506z" />
<glyph unicode="&#xf09a;" glyph-name="facebook" d="M1008 447.997c0-247.56-181.381-452.76-418.5-490v346.62h115.561l22 143.381h-137.561v93.1c0 39.221 19.221 77.461 80.82 77.461h62.561v122s-56.762 9.68-111.041 9.68c-113.34 0-187.34-68.66-187.34-192.961v-109.279h-126v-143.381h126v-346.62c-237.12 37.24-418.5 242.44-418.5 490 0 274 222 496 496 496s496-222 496-496z" />
<glyph unicode="&#xf09b;" glyph-name="github" horiz-adv-x="992" d="M331.8 165.196c0-4-4.602-7.199-10.4-7.199-6.6-0.6-11.201 2.6-11.201 7.199 0 4 4.602 7.201 10.4 7.201 6 0.6 11.201-2.6 11.201-7.201zM269.6 174.196c1.4 4 7.201 6 12.4 4.602 6-1.801 9.801-6.4 8.6-10.4-1.199-4-7.199-6-12.4-4-6 1.199-10 5.799-8.6 9.799zM358 177.596c5.801 0.6 11.199-2 11.801-5.799 0.6-4-3.4-7.801-9.201-9.201-6-1.4-11.199 1.201-11.799 5.201-0.602 4.6 3.398 8.398 9.199 9.799zM489.6 943.997c277.4 0 502.4-210.6 502.4-488 0-221.8-135.6-411.6-335.6-478-25.4-4.6-34.6 11.199-34.6 24.199 0 16.4 0.6 99.801 0.6 167.201 0 47-15.6 77-34 92.799 111.799 12.602 229.6 28 229.6 221 0 54.801-19.6 82.4-51.6 117.801 5.199 13 22.199 66.4-5.201 135.801-41.799 13.199-138-54-138-54-40 11.199-83 17-125.6 17s-85.6-5.801-125.6-17c0 0-96.199 67-138 54-27.4-69.201-10.4-122.801-5.199-135.801-32-35.199-47.201-62.801-47.201-117.801 0-192.398 112.801-208.6 224.6-221-14.398-13.199-27.398-35.398-32-67.398-28.6-13.201-102-35.4-145.799 41.799-27.4 47.6-77.201 51.6-77.201 51.6-49 0.602-3.199-30.799-3.199-30.799 32.801-15 55.6-73.201 55.6-73.201 29.4-89.6 169.4-59.6 169.4-59.6 0-42 0.6-110.4 0.6-122.799 0-13-9-28.801-34.6-24.201-199.4 66.801-339 256.6-339 478.4 0 277.4 212.2 488 489.6 488zM194.4 254.196c2.6 2.602 7.199 1.201 10.4-2 3.398-3.799 4-8.398 1.398-10.398-2.6-2.602-7.199-1.201-10.398 2-3.4 3.799-4 8.398-1.4 10.398zM172.801 270.397c1.398 2 4.6 2.6 8.6 1.4 4-2 6-5.201 4.6-7.801-1.4-2.801-5.4-3.4-8.6-1.4-4 2-6 5.201-4.6 7.801zM237.6 199.196c2.6 3.201 8.6 2.602 13-2 4-3.799 5.201-9.799 2.6-12.398-2.6-3.201-8.398-2.602-13 2-4.6 3.799-5.799 9.799-2.6 12.398zM214.8 228.596c3.199 2.6 8.398 0.6 11.199-4 3.199-4.6 3.199-9.799 0-12.4-2.6-2-8 0-11.199 4.602-3.201 4.6-3.201 9.799 0 11.799z" />
<glyph unicode="&#xf0a8;" glyph-name="arrow-circle-left" d="M512-48c-274 0-496 222-496 496s222 496 496 496 496-222 496-496-222-496-496-496zM569.8 239.199l-151 144.801h365.2c26.6 0 48 21.4 48 48v32c0 26.6-21.4 48-48 48h-365.2l151 144.801c19.398 18.6 19.799 49.6 0.799 68.6l-22 21.799c-18.799 18.801-49.199 18.801-67.799 0l-265.4-265.2c-18.801-18.801-18.801-49.199 0-67.801l265.4-265.398c18.799-18.801 49.199-18.801 67.799 0l22 21.799c19 19 18.6 50-0.799 68.6z" />
</font>
</defs>
</svg>
