<svg xmlns="http://www.w3.org/2000/svg" width="19.211" height="17.545" viewBox="0 0 19.211 17.545">
  <g id="Group_7844" data-name="Group 7844" transform="translate(-16900.564 -3016.777)">
    <path id="Path_7" data-name="Path 7" d="M15822.066,2517.646a.426.426,0,0,1-.2-.044.473.473,0,0,1-.278-.433v-3.9l-.211-.087a3.8,3.8,0,0,1-2.277-3.478v-5.815a3.8,3.8,0,0,1,3.8-3.792h11.615a3.8,3.8,0,0,1,3.8,3.8v5.807a3.8,3.8,0,0,1-3.8,3.8h-7.43l-4.7,4.031A.483.483,0,0,1,15822.066,2517.646Zm.835-16.587a2.837,2.837,0,0,0-2.834,2.834v5.812a2.85,2.85,0,0,0,2.127,2.75.48.48,0,0,1,.357.461v3.212l4.051-3.47a.457.457,0,0,1,.31-.115h7.6a2.843,2.843,0,0,0,2.842-2.838v-5.812a2.841,2.841,0,0,0-2.842-2.834Z" transform="translate(1081.463 516.677)" fill="#2b2b2b"/>
  </g>
</svg>
