<svg xmlns="http://www.w3.org/2000/svg" width="24.308" height="24" viewBox="0 0 24.308 24">
  <g id="Group_7845" data-name="Group 7845" transform="translate(-16923.846 -3012)">
    <rect id="Rectangle_2989" data-name="Rectangle 2989" width="24" height="24" transform="translate(16924 3012)" fill="none"/>
    <g id="noun-view-2632570" transform="translate(16777.357 2937.175)">
      <path id="Path_7238" data-name="Path 7238" d="M148.629,161.509a.39.39,0,0,0,0,.357,13.428,13.428,0,0,0,23.914,0,.39.39,0,0,0,0-.357,13.428,13.428,0,0,0-23.914,0Zm11.957-6.533a12.64,12.64,0,0,1,11.168,6.712,12.645,12.645,0,0,1-22.336,0,12.64,12.64,0,0,1,11.168-6.712Z" transform="translate(-1.944 -74.366)" fill="#2b2b2b" stroke="#2b2b2b" stroke-width="0.3"/>
      <path id="Path_7240" data-name="Path 7240" d="M282.113,216.417a4.3,4.3,0,1,0-3.842-6.231,4.237,4.237,0,0,0-.459,1.931,4.306,4.306,0,0,0,4.3,4.3Zm-3.143-5.88a3.518,3.518,0,1,1,4.721,4.723,3.465,3.465,0,0,1-1.578.375,3.523,3.523,0,0,1-3.519-3.519,3.461,3.461,0,0,1,.376-1.579Z" transform="translate(-123.471 -124.796)" fill="#2b2b2b" stroke="#2b2b2b" stroke-width="0.3"/>
    </g>
  </g>
</svg>
