<svg xmlns="http://www.w3.org/2000/svg" width="22.462" height="13.202" viewBox="0 0 22.462 13.202">
  <path id="Path_7333" data-name="Path 7333" d="M-14797.211-1715.6a1.107,1.107,0,0,1-.675-.239l-3.417-4.712a.663.663,0,0,1,.238-.734.656.656,0,0,1,.388-.128.656.656,0,0,1,.536.276l2.224,3.042v-7.338a1.4,1.4,0,0,0-1.405-1.406h-6.587l-.955-1.313h7.542a2.722,2.722,0,0,1,2.719,2.719v7.577l2.38-3.286a.659.659,0,0,1,.535-.272.645.645,0,0,1,.38.12v.008a.638.638,0,0,1,.269.429.657.657,0,0,1-.116.488l-3.174,4.335a1.009,1.009,0,0,1-.38.322,1.118,1.118,0,0,1-.5.11Zm-4.555-.827h-7.459a2.72,2.72,0,0,1-2.719-2.715v-7.342l-2.354,3.221a.648.648,0,0,1-.537.276.643.643,0,0,1-.387-.128.647.647,0,0,1-.265-.43.663.663,0,0,1,.116-.49l3.114-4.3a1.111,1.111,0,0,1,.882-.463,1.068,1.068,0,0,1,.682.239l3.467,4.715a.694.694,0,0,1-.238.73.676.676,0,0,1-.4.135.643.643,0,0,1-.52-.284l-2.255-3.1v7.242a1.408,1.408,0,0,0,1.4,1.41h6.512l.946,1.28Z" transform="translate(14815.494 1728.805)" fill="#2b2b2b"/>
</svg>
