<svg xmlns="http://www.w3.org/2000/svg" width="20.031" height="19.965" viewBox="0 0 20.031 19.965">
  <path id="noun-share-4767182" d="M120.534,48.519a3.519,3.519,0,0,0-2.785,1.357l-6.641-3.285a2.76,2.76,0,0,0,0-1.857l6.641-3.285a3.6,3.6,0,0,0,5,.571,3.531,3.531,0,0,0,.571-5,3.6,3.6,0,0,0-5-.571,3.518,3.518,0,0,0-1.357,2.785,4.179,4.179,0,0,0,.143.928l-6.641,3.285a3.563,3.563,0,1,0-.643,5,5.452,5.452,0,0,0,.643-.643l6.641,3.285a5.6,5.6,0,0,0-.143,1,3.57,3.57,0,1,0,3.57-3.57Zm0-11.425a2.142,2.142,0,1,1-2.142,2.142A2.1,2.1,0,0,1,120.534,37.094ZM107.681,47.8a2.142,2.142,0,1,1,2.142-2.142A2.1,2.1,0,0,1,107.681,47.8Zm12.853,6.426a2.142,2.142,0,1,1,2.142-2.142A2.1,2.1,0,0,1,120.534,54.231Z" transform="translate(-104.073 -35.694)" fill="#2b2b2b"/>
</svg>
