<svg xmlns="http://www.w3.org/2000/svg" width="24" height="24" viewBox="0 0 24 24">
  <g id="Group_7851" data-name="Group 7851" transform="translate(-16952 -3012)">
    <rect id="Rectangle_2990" data-name="Rectangle 2990" width="24" height="24" transform="translate(16952 3012)" fill="none"/>
    <g id="noun-heart-4769205" transform="translate(16884.375 2973.976)">
      <path id="Path_7332" data-name="Path 7332" d="M-14587.78-1602.67a5.415,5.415,0,0,1-1.6-3.855,5.416,5.416,0,0,1,1.6-3.856,5.417,5.417,0,0,1,3.855-1.593,5.414,5.414,0,0,1,3.852,1.593l.352.348.352-.348a5.4,5.4,0,0,1,3.853-1.6,5.429,5.429,0,0,1,3.753,1.494l.1.1a5.42,5.42,0,0,1,1.593,3.856,5.426,5.426,0,0,1-1.593,3.855l-8.06,8.059Zm.9-6.807a4.176,4.176,0,0,0,0,5.9l7.154,7.155,7.155-7.155a4.126,4.126,0,0,0,1.212-2.948,4.143,4.143,0,0,0-1.216-2.951,4.144,4.144,0,0,0-2.947-1.219,4.145,4.145,0,0,0-2.948,1.219l-1.256,1.256-1.256-1.256a4.14,4.14,0,0,0-2.951-1.216A4.139,4.139,0,0,0-14586.876-1609.476Z" transform="translate(14658.917 1654.009)" fill="#2b2b2b"/>
    </g>
  </g>
</svg>
