<svg xmlns="http://www.w3.org/2000/svg" width="24" height="24" viewBox="0 0 24 24">
  <g id="Group_7843" data-name="Group 7843" transform="translate(-16872 -3012)">
    <rect id="Rectangle_2983" data-name="Rectangle 2983" width="24" height="24" transform="translate(16872 3012)" fill="none"/>
    <g id="noun-heart-4769205" transform="translate(16803.543 2971.956)">
      <path id="Path_7331" data-name="Path 7331" d="M-14583.048-1508.09a6.909,6.909,0,0,1-2.991-.615,1.17,1.17,0,0,1-.952.494h-3.373a1.19,1.19,0,0,1-1.179-1.2v-9.723a1.19,1.19,0,0,1,1.179-1.2h3.373a1.172,1.172,0,0,1,1.036.634c1.34-1,3.229-3.061,3.61-4.695a18.257,18.257,0,0,0,.345-2.047,1.751,1.751,0,0,1,1.7-1.512h.033c.952,0,1.717.8,1.951,2.04a10.876,10.876,0,0,1,0,4.49h5.577a2.558,2.558,0,0,1,1.772.806,2.2,2.2,0,0,1,.531,1.7v.015a2.157,2.157,0,0,1-.959,1.674,1.93,1.93,0,0,1,.557,1.919,1.7,1.7,0,0,1-.894,1.157,1.849,1.849,0,0,1,.267,1.571,1.868,1.868,0,0,1-1.011,1.282,1.828,1.828,0,0,1,.132,1.663,2.3,2.3,0,0,1-2.211,1.542c-.3,0-1.04,0-1.967,0h-.289c-.861,0-1.85,0-2.8,0-1.567,0-2.629,0-3.241.018Zm2.095-18.244a20.278,20.278,0,0,1-.366,2.182c-.483,2.069-2.907,4.636-4.5,5.64l0,8.723a5.845,5.845,0,0,0,2.938.63c.63-.011,1.7-.018,3.259-.018,1.021,0,2.062,0,3.047.007.941,0,1.7,0,2.007,0a1.256,1.256,0,0,0,1.234-.864.863.863,0,0,0-.462-1.088.533.533,0,0,1-.274-.612.514.514,0,0,1,.531-.4,1.007,1.007,0,0,0,1.047-.714.915.915,0,0,0-.567-1.066.536.536,0,0,1-.326-.568.537.537,0,0,1,.465-.461c.78-.084.956-.267,1.055-.648.172-.656-.385-1.055-.883-1.271a.538.538,0,0,1-.314-.571.528.528,0,0,1,.469-.45,1.248,1.248,0,0,0,1.1-1.121l0-.026a1.143,1.143,0,0,0-.261-.875,1.511,1.511,0,0,0-1-.454h-1.794q-2.251,0-4.5,0a.522.522,0,0,1-.447-.249.539.539,0,0,1-.033-.505,8.533,8.533,0,0,0,.169-4.6c-.136-.71-.494-1.172-.919-1.172A.708.708,0,0,0-14580.953-1526.334Zm-9.535,7.2v9.723a.127.127,0,0,0,.124.132h3.373a.126.126,0,0,0,.088-.037.149.149,0,0,0,.036-.1v-9.723a.131.131,0,0,0-.124-.135h-3.373A.128.128,0,0,0-14590.488-1519.135Z" transform="translate(14661.087 1569.01)" fill="#2b2b2b"/>
    </g>
  </g>
</svg>
